<mxfile host="65bd71144e">
    <diagram id="OF2OKt6helra-xvtPsPx" name="ページ1">
        <mxGraphModel dx="614" dy="331" grid="1" gridSize="10" guides="1" tooltips="1" connect="1" arrows="1" fold="1" page="1" pageScale="1" pageWidth="827" pageHeight="1169" math="0" shadow="0">
            <root>
                <mxCell id="0"/>
                <mxCell id="1" parent="0"/>
                <mxCell id="12" value="&lt;h5 style=&quot;font-size: 14px; line-height: 19px;&quot;&gt;https://www.example.com/api/aaa&lt;/h5&gt;" style="text;html=1;strokeColor=none;fillColor=none;align=center;verticalAlign=middle;whiteSpace=wrap;rounded=0;fontColor=#FFFFFF;fontFamily=Noto Sans JP;" parent="1" vertex="1">
                    <mxGeometry x="210" y="230" width="220" height="30" as="geometry"/>
                </mxCell>
                <mxCell id="2" value="" style="shape=image;verticalLabelPosition=bottom;labelBackgroundColor=default;verticalAlign=top;aspect=fixed;imageAspect=0;image=data:image/png,iVBORw0KGgoAAAANSUhEUgAAANsAAADbCAYAAADkg+RAAAAAAXNSR0IArs4c6QAAAARnQU1BAACxjwv8YQUAAAAJcEhZcwAAFxEAABcRAcom8z8AABWnSURBVHhe7Z15fFTV2ccnYUkICWRfIAvZCAFECISwhYSAgZCwJJkkZAHEIoIWK9YdWhdEBBdAX6RYKriDFXhrUYGyL7KpiAsKJaDIJipSfen71r7lec9z7p3pECfAue/ccWby+374fSZA/rjnuec75y7n3GsBAAAAAAAAAAAAAAAAAAAAAAAAAAAAAAAAAAAAAAAAAAAdIgp8Zt68jKF5efn5fbJq87K6T8lMSpiSFBUxJTk2CmkkXB+uE9eL68b14zpyPfXSAqAhOoX/rFmzoh6acc/wcdbyB/tlXbuyT7fO9TldMy90Smh3ITkq/EJqTCTSSLg+XCeuF9eN68d15HpyXbm+eqlBU2fRggWdx1VaZwzuk7OxR0bqkc5J8ee7JidSt9Qk6hQfR+lx0ZTeDmk0oj5cJ64X143rx3XkenJdub56qUFTRXzjtrj31lu7TaiqeKSgX5/6a1KSqENUOKVER1BKTKRMamwUcpWx1Yzrx3XkenJdub5cZ663XnrQlBA73o/PK+oqyucV9Mn+snOHhIt2wWydhn920qkQ53FWP64r15fr/NRTj3fiuuu7ADQVpk6cGF9nLZsysHfWx93SOsiOwd/GzjoRYizyKEHUlevLda61lt7Mddd3AWgK8Lfr2Krykvyc7HVdOsT/kCwOexp2FP63+LA2FBvciqKDApArhOvE9Wqsllzn/N7Z67nuGN2aEGJnh1lLht2flZH+Q4Y4sW/YQbRDIO28LU2c/CNXF8e6OdaT68t1zspI+y+uO9df3xXAl7l48WLAqhUv9x4xpGB556R4SnfoFJykyDBKigiVJ/fWkiJ6aMZ9tHD+POQK4TpxvbhuXD+uo2Nduc5cb64715/3g75LgK+yevXS0DtuvaUmv3evzWlxYhRzGNX4GzlRdBRxUk/ifI5WvPwinTl9SnwRgyvBdeJ6cd24flxHxxGO68z15rpz/Xk/6LsE+CoTJlijCvNyf5nVMe3d1Fjtyhl3Bj7U4RP69HYxVFyQRy8te47Offut3pXA1cD14rpx/biOXE/7ITrXOSaKuO5cf94P+i4BvsrEibXxpUWFM/t061JvO8/gzsAdIyG8LWV1SqdpN0+mDz/Yr3choALXjevHdeR62q7wcp253lx3rj/vB32XAF9l9uz7U6be9ItFQ3P7f2P79rXJ1j40hAb07E6zH7yfDn32qd59gApcN64f15Hr6VhfrjfXnevP+0HfJcBXmTt3Zurtt0x+tih/4DlnsuX26kFzH36IDh/6TO8+QAWuG9eP6+hMNq4715/3g75LgK/C36i/mnzjomEDB1x2ZPvs04N69wEqcN0uN7Jx3bn+GNmaAJDNXCAbsAPZzAWyATuQzVwgG7AD2cwFsgE7rpDtnxeJTvz9R/rk/H/TwfP/Q5/+zffD7eT2cru5/Y0B2YAdV8h2QfS2dae+pwWffk0LD31Dvzvs++F2cnu53dz+xoBswI4rZDv/j/+Vna96++c0fucXNHHXcZ8Pt5Pby+3m9jcGZAN2XCHbOdHZHv34KyrcUE8lm45S6ZZjPh9uJ7eX283tbwzIBuy4QrbvRGd7/OBZKtl8lMq2HqMq8Y3v6+F2cnu53dz+xoBswI6rZHtCdLoRovOVi044RnRGXw+3k9vL7YZs4KqAbMYC2YAykM1YIBtQBrIZC2QDykA2Y4FsQBnIZiyQDSgD2YwFsgFl3CFb9c7jVLvnFNW9e5bGvve1TO2e0/LfG/6utwSyAWVMl23HF1S947ieL/S/iwjRpGz8b46/7yWBbEAZM2Wr3v4F1e09QxUbD9Pg3/2Jsu6YS10nz6Du02bRoP9YSdZ1B6n6nS8v6cTeEsgGlDFLNjlyidGsctNhKnhmFaVYJ1FgQmeyBMdQi7h0ShxeQwMeXUZlb39ENbtPet0hJWQDypglG5+j8SHi4EWrKaX8RmqV3I0sAWFkaR5ClsBwahmRSLEDR9Kgp18X53JfUe1u8fsNOrQnB7IBZcySbey7X8vP7tMeoYD2GZporaPI0iaOLCGxZLEEUrOoDnTtrx4m64ZDVCMOJ71pdINsQBnTZHv/G/nZ5abp5MeCNW+jida2nRa/1uQfnkCdJtxJI1ftkWvDanaduKRDe3IgG1DGvJHtrDyM7Hn3E9Q6rYc4V4sWI5uIFE7E0or8hGzX3HI/WdcfxMgG2Xwfs2ST52BCnut+v4ZSK26ilnwoKQST8RejmhAvIqeQch9/SY5oOGeDbD6PWbLJq5Ei1nWf0IA5z1O7IRXUsl1HahGVTC3j0ikmt4R63TePRq7eK2XztlsAkA0oY5ZsMvoN7NI1H9CghSsp54FnKOc3T1PO/Qsp/+k/0qj/3EdVW49qh49ednMbsgFlTJWNIyTi87HavWe06Voi/Mk3u+WI5mWS2QLZgDKmyybCIxefk7FgtvB9OHnoCNkgW1PBHbL5YiAbUAayGQtkA8q4TTZxuChn+zvM/nf6e14SyAaUcYds1Tu/pLp9X9G4D87R+A/P0/gD38mLJN46458D2YAyZstmE6p83SfyntqI19+R07PK136s/T9f9nf4fW8JZAPKmCkbHy7yiuzSNfupzwOLqEPpDRSbP5oSS8ZS9vT5NHLlHvF7+uGlQ0f2hkA2oIxZsvGIxudno994T97Mjs0bpc/2D5Kz/yOy8unaqQ+JkW6XvAdX8473TELmQDagjFmy8b00vgjSf/ZSihlQTM2jk8kSGEGWIJHW0eQnfm6TmUP9Zi2hmt2nMDcSsvk+ZsnGD/Xhz643/5b8w+K1RaPBMdqMf575b2kll9jwEpzSNw9oVym96IIJZAPKmC7bFCGbkMrSMlQ7jLStZ+PDydD2lDnhTjlHkp9XwtO6HDu0JweyAWXMkq1un3YY2XfmsxSRPVgb3fgwkte08do2v9bUol1HyrrzMaracoRqdp30qntvkA0oY5ZscpLxzuNU/OpW+UStIF5AKtezBcjPltEplDhiHA1Z/IY4XzspH/rTsEN7ciAbUMYs2eTlfCEbj1pDnl1DGeNvp8i+wyiy12CKzCmk9JqplLdgOZWt/djrVmlzIBtQxizZbGHpKjYekjeyi17aRMNe2EBFL26kESt3k3XDZ9rvedHhoy2QDShjtmwsEh8i8gOA5FStD/8mP8e9/622zGYHZpBAtiaC6bJx9EPKhvHGEc0WyAaUcYtsPhjIBpSBbMYC2YAybpGNDyPf+VKbliXO03hqFs+FlOvaGv6ulwSyAWXcIRufn/Hsf55VMm7/t/JiCU8+xno2yNakMFc2XmJzSj6urnj5dsqbv5z6P7qUBj75Mg1/ZQtVbj7itcJBNqCMabLxoaP+CISilzdT15umU1j3PApM7EJtuvSlTuOn0XXPrpHvbtOW43jXISVkA8qYJZs21/E4Fb20UYrW9pr+ZAkIJ357Db/RpnVSF0opm0hDl66Tj0jAdC3I5vOYJVvdPu3FGvyI8ZBO2drk46BIbeY/x7+1fP5/r3uepKptx6Sc3jS6QTagjFmy/fSVUSH/XmLDf/cLIv+IBMq84W4atZqX2IjR0IvO3yAbUMY02fT1bPyyQ36hBr9tVFs8yuvZePGoOJwUP3e+8V75LgA5qwSyAV/GLNn4Uj8fRuYvWE7xQ8dQ85gUsjQTo1uLtnIhqZ9IcGZv6vvQYu3WAD8WAYeRwJcxSzbbshl+4E/2ffMprOcgsrQS52wtQsUnP3+kN3WedA8VvbJFW8/mRW8d5UA2oIxZsmmX/rWRquS1nZQ94ym5pq1j7VTKGHubvHDCVyorNh3WJiXvxKV/fZcAX8U02WzRhavaUk+Vm/9KlZtExGfV1vpL/t/bAtmAMqbLxg/yEYeIfC+Np2rZYru35q3zIyEbUMZ82XwzkA0oA9mMBbIBZSCbsUA2oAxkMxbIBpSBbMYC2YAykM1YIBtQBrIZC2QDykA2Y4FsQBnIZiyQDSgD2YwFsgFlIJuxQDagDGQzFsgGlIFsxgLZgDKQzVggG1AGshkLZAPKQDZjgWxAGchmLJANKAPZjAWyAWUgm7FANqAMZDMWyAaUgWzGAtmAMpDNWCAbUAayGQtkA8pANmOBbEAZyGYskA0oA9mMBbIBZSCbsUA2oAxkMxbIBpSBbMYC2YAyP4ts/OYaT46zbW4QyAaUcatsoiPziw9r3jkhXyPlkRHbJl/O6Gz7HQLZgDLuks0mme0l9VVbj3pkbNtavfPLy747DrIBZdwhG3da7sCVW45Q6Zr9NHz5Nhr2wgaRjTTsRQ+J3JZNVPzqNip9cz+N2XbM/sXgLJANKGO2bNU7tXdrl6/7hPLmL6fMiXdTWsUkSrHeRKkVIpWTPSO8LdZJlCaSdcccId1WqtomRjoe3ZyMcJANKGOqbKKT1uw6SZWbj1Dh0nWUIiTzj0wiv8AI8guN1xLmIeFtaRNLfq0iqG3X/pR151wauXqvHN2qxbmco2gcyAaUMVM2HtHq9p6Wo1q/R/5AUf2Hk6VlKFksAdqnp6V5G7L4BQn5Eql9YRUNWrhSvve7ds+pS0TjQDagjOmy7RGyrT9I/ecspejcErIEhAnZWpFFjG6WwHDPCm9bs2CytImj6AElNHDeq7pspy8RjQPZgDJmyqYdRp6gqi31VPTSJupYeyu1iEsn/+Bo8o9I9LyIw0l/IVpwp96U+Yu75IUT7TbFyUtE40A2oIypsonIK5E7jlPFhkM06OnXqdOEOyhBHKLF5o+m2IIyivOQxA4qFZ+llDB0DHW9+bdU+NzbVLHxsNx2jmObOJANKGO2bBzbPTbuvMXLt1HeghXiHG4J9X90qcgyz8js5+QnXzEtXrGdqsV2a4ePzu+1QTagjDtk49hGuKptx6hi02Gy/uVTkc/IusFDom8LfyHwJX95U/syM0kgG1DGXbJxWDg+h+MRo27fGarb63nhbeNt1O6tNd4WyAaUcads9nBH9uQ42+YGgWxAmZ9FNh8IZAPKQDZjgWxAGchmLJANKON22ZydI3linG27QyAbUMadsvHUp7Hvf0PjD3wnct5D8x2Nfe9r7YqkkzbYAtmAMm6RTYwUtvVs5Ws/ptF/3k+j33hffHpQeHs4a/ZT+bqD2kLSy4xwkA0o4w7ZeJTgG9qFz62VU6ESR15PCcPGUEJRDSUMr/WMDKuW25M06nrqccdcKlmxQ267djP+p9JBNqCM2bLxejCeNVLy2k7qOuU3FJTWnSwt2sqlLHKGfbMQz4i/2Bb/1mQJCKXQHnnU8+7HadTqfXL7eaqZY5s4kA0oY6ZsPCLI9Wzi0LHvrCUUkzdSLl+RnVsua+FlNp4SfYmN+CJoHp1C8UXVVLBwlZzxjyU2wCWYOrKxbPvOUOlbByh7xgIK6zlIdGjRqZu1IUtwjEg0WVp7SHhbgiK1RaRt21H0gGIa+OQrkA24DrNl4yuQPLl3yOI/UYr1RmrZriP5B8eSX3gC+cskekgSyC+0vVzPFpLZmzIn3iXX4NXwYSTWswFXYKpsHBZOdFie6c/LWOKHjaHwngVaeg2m8OwhnhHeFn27OtbdSoV/eIsqt9RrF0eczP6HbEAZ02Xbdkxejazde0ZeYs9/6jXqJ87f+j78e+rHET97RMS2yG0SP7NoVZuPOD18tAWyAWVMl80WMULIVc9ilPCK8IjmrB16IBtQxm2yifBldPtaNlsarCf72eKwTTW7T0E24HrcKZsvBbIBZSCbsUA2oAxkMxbIBpSBbMYC2YAybpWNr0jylT59vqEnRj7bX2yj0+13CGQDyrhTNu7E8mrku2flmjFPTN2+r+SsF2cPZnUMZAPKuEM2loxvbFdtrafRb7xHRS9vlm+1GbpsvcdEbs/zf5EPaC1b+5GUjUe6hm2xBbIBZdwhG0/XYuH4acjZ986jtKoplDC8jhJHjKOkkeM9IgnFdeLzevl49AFzl8mFpPJemy0N2gTZgDKmyiY6KYs2ZttRKnl9F3W/fTZFZA+hwHYZchlL89g0ahGb7hFpHpMiPtOodcq11P66Cuo1fT6NXLUb69mA6zBbttq9p8m6/iANeOwFii0oJUtILFlattU+PS281CYwnJpFdqC4IeVyHqec14klNsAVmCmbtnj0DJW9/RHlPPAMReQUamvGmof8dD2ZJ8S2ni0kTm5r7mMvau9nE18YjqJxIBtQxmzZanefkstrChatls/4kCuiLf7aCxEtQR4U3p5AkQB5OJlcfiNdt+QtObLV7MF6NuACzJSNI++rifAVvl73PCHXiwWndKfgjGz50kGPCW9PRi/5mVhcR/w6q7K3Dmj33fi806FNHMgGlDFbNg7Lxp8jV++hwWKEy5+/Qp4P5T/1Rw8Kb4+WocvWUembH/z7cXacBm2CbEAZd8gmo18sGffBOfkgVE8OP0iWD38vt8wGsgFl3CabiO3mNj/Tw6PD07b00bixQDagjDtl86VANqAMZDMWyAaUgWzGAtmAMpDNWCAbUAayGQtkA8pANmOBbEAZyGYskA0oA9mMBbIBZSCbsUA2oAxkMxbIBpSBbMYC2YAykM1YIBtQBrIZC2QDykA2Y4FsQBnIZiyQDSgD2YwFsgFlXClbieh8ZaITVonO6OvhdnJ7IRu4alwl22OfnKWiTfU0astRqth2zOfD7eT2crshG7gqXCXbk+Ib3iZazY7PfT424bjdkA1cFa6Q7fsf/0Uv1H9LU/eeoGnvnqS73j/l8+F2cnu53dz+xoBswI4rZPvHvy7Sh+f+TmtPfk/rT39PG0//4PPhdnJ7ud3c/saAbMCOK2RjuLtxn2tqEX8uC2QDdlwlG3AOZAN2IJu5QDZgB7KZC2QDdiCbuUA2YAeymQtkA3Ygm7lANmAHspkLZAN2riRbbq8e9PjsWXT8i8/17gNU4Lpx/biOkK2JczUj25yZD9JfDx/Suw9QgevG9cPIBhqVLTk6gpIiw6h7x1SqGlVCD06/lxbOn4cohuvG9eM6cj25rpCtidKYbI5Ji4tG/p9pWFPI1gS5kmz8TZwQ3pZig1tRdFAAohiuG9fPNqLZAtmaIHPnzky97eZJS4bn5Z5vbGRDXB+bbFx3rj/vB32XAF9l5szpyVMn3fD0df37nuXDHcjmnnCdud5cd64/7wd9lwBf5de/nhxdOar4tuwumQdSYiJ/criDmBOuM9eb68715/2g7xLgq1it1laFubn9BmT1eL57x9QfOyfFU3pclEi0OMxBXB6uq6gv11nU+59cd64/7wd9lwAfxm/JkjkhkyZMmDC8IH97t7SU88lR4RdSoiMupMZEIi4O15Xry3UeXpC3g+vO9ef9oO0O4PMsXrw4cWxVeUlWp/RJSRGhU5KjIqYkx0Yhro6oK9eX61xXWTaC667vAgAAAAAAAAAAAAAAAAAAAAAAAAAAAAAAAAAAAAAAAABAU8Ji+T//q7XfLJu8UQAAAABJRU5ErkJggg==;" parent="1" vertex="1">
                    <mxGeometry x="480" y="160" width="79" height="79" as="geometry"/>
                </mxCell>
                <mxCell id="3" value="" style="shape=image;verticalLabelPosition=bottom;labelBackgroundColor=default;verticalAlign=top;aspect=fixed;imageAspect=0;image=data:image/png,iVBORw0KGgoAAAANSUhEUgAAAOUAAADkCAYAAABnleOzAAAAAXNSR0IArs4c6QAAAARnQU1BAACxjwv8YQUAAAAJcEhZcwAAFxEAABcRAcom8z8AACbFSURBVHhe7Z0JXE35+8dnzIx9yRbti3ZSSlokKmVLRHuRSrbsTSRLGIyxzNRIlmSG7CNjLDMMSpaxDMZg7JUla8YWQur5P8+553L5o878XCrP+zWf12V0b/c+5/M53+V8v+d+wjAMwzAMwzAMwzAMwzAMwzAMwzAMwzAMwzAMwzAMwzAMwzAMwzAMwzAMwzAMwzAMwzAMwzAMwzAMwzAMwzAMwzAMwzAMwzAMU84AgMrFxcV6mXv3Oqxc+VOn5MWLe3w/d67fqFFjAkNDQ4NDe4cGh4X1DWJVTNHxpeNMxztx3jxfOv7LV63qTH5AX2iJNmGUDRa7Suqvv9ZOTU3VXJma2i55/vyoWTNnLpkYF5c+fty4w6Ojo0+F9emT5dWt24Xunp4Xenp55bAqpuj40nGm4x0THX2Sjv/kiRPTyQ9zEhIi4+PjbWYmJakePXq0Bp7APxMtxLxLMJD1t6Wn95w9+7upocHBS9s72v/qbN/q704u7W6innRu7wKdXZ3BpbU9tLa2QrUAx5ZWrAoqOr50nOl403Gn49/Jxfkp+cGppdVhJxur9aEhvZLnL1w48mpeXksM5qeilZj/laysrDrjJk+2GDt2bOSXI4dv7hcWdtvDrT2Y6WiCVt1aoNuwLug1rIePMumpkuqDPooeWRVTL47vi2MvU130RW1oqqcFXTu4Q/+I8DPRw4cnzJ4xw2fdpk2mGM4vRGsx/wUsYPWkpAWekYMGrfLs2CGrlblpvrWpEVgaNgFDNVXQaVAXdFH0qNNARfZ3MaSsj0N0vF86/qKM1BuBpZEBWBg1KWppZny9V4DfiW/j45N27t1rI9qLkQJ1NbZmZurFxcWFRYSFbeja0f2RrXlT0KmvAuq1awiP+o0aQBMMZpPGDVmsl4W+IH/I/FJdCC8OdaB3YMD1EUOH/zBlytfd0GMNRLsxpWH16tV60SNHDgv29zvg6uT4rLmBnuzMKO+6UCDFA0B/pm6LcLbEg6Bdr47QfWF9BMJjTcebjju1juQNxXCSNxS7utRydnFzKxwSOWjbwoULg7Zt21ZftBzzNugMNrh///7tnVofdrCyeGqBXVX5WU8xjIKo6BhIOjCaKrVAo05NUKtVHRrVrCqocc1qrAooxWNLx5uOu2bdWq/3SGNZq0kBpmBaGRuCh1v7R6G9e++KihrWA/1WSbQe8zoWLVpUK3727GDv7l2341hAKCq1goqFNsCuCf0/OhCN8KDo4J8tTYzA0cYaXB0doFsHN/Dr1hXlCb6eHqyKKDy+PvjYo0snDJgruLa2B3srSzDT0wY1HN6oVq+MJ+ra/y+gFEoKroWBPri2cYSIvmFp85KT3RJ+/bWKaEFGERpHjh071inA12eri6PDI2MtdeySqMi6JGJxqciywb0sqMbaGtDW3hb69w2HryZPhjlzvoe0tWshY0c67EzPgB3bt7MqoNK374Dt27fB5s2bYeWKFZCQkADjxo2FAO+e0MLEUAie4nBHHkrBPzRbi13d5hhM/x5e+bGxsavik5KaiTZk5FAXYumKFbZRI0YkYSDzmxvqYxFlAZQX1ABF44j6VT4HI0118MazZdz4sZC65EfI3JkJx0/8A9k5OXD77l14WvhM0JOnhawKqsdPn8KDh4/g5q1bcD47G/46ehS2/PorLEhKhMh+EeBkawPaGL5GNaoKM7TUw5J7iYY7+qoNwNG6Bfh6db8ya9askQUFxQbclVUgIyOj5sSJE8f0Dgy4bN3UBHSEor08aNfGsx91VWmMGRocCMuXL4fsCxegsLAQa8kwMp6iHw4c/BOmfvUVeHZwh6a62uidOoIU/aSPXqIurr2F+aOxMTHp2zN2+ePTOZRylixZYuTb02tpW7tWYKarJYRS3mUlURdEXaUW2Fqaw6QJ4+HA/v1wMy9PdhQY5hUeP3kK57Oy4Od162BgeBiY4jBHtXqVl7uyGEq6XGJtZgKhvXvdj4ubNAW7wTy2JI6cPdtw/vz5Ie7ObffTGFEomkIgadaMuq0tm5nBmFHRcOzYMbH0DPN2qHu7aeNGCPLxBhMtDWGBAY0nhVCix+jPzfR1wcXRHgJ9vdetX7++BT6tumjNj5fftm2znzlz5pLO7V3y6ExG1xvlgSTRYgGa1qYz3t69e6Hg8WNZxRmmFFy7fl0Y6nh7dgU9DCLN2iv6izxnpNEYPDu6H1+2bNmogoICA9GaHy/zFi70Gj1q1F+dXZ2L6MxFM2dULPlMmR4OyNvgoH3BvHl45nsolpphSk/ulSvw1aSJ0MywCWiovHyphMaVWij0X/706dM3btq0yVm05sdL/759A/x9fC4729sKZy263EHFoke6IGxlagyRAwfA7j17xBIzjHTWr/8Zunf1AGNtTdklE3F8SV1amuXv0t4FoqJGnvw2IcFbtObHi3Nru94OLa3yaKG50EI+L1ZdaFyrGrg5OcLilBTshtwQy8sw0jl5+hRMnTJF2Paljl1Y+diSHslz7m3bQFifkKtR0dG9RGt+nGCtqrs62g810dW6baypJhRJLprgaVi9srB6Y/++fVBY+ExWXYb5D9x78ADS0tLAw81FuHZJ1yrJZ0KLid3ZVs3MaG9mXhc3txDRnh8nxcXF6sHePScZa6rfffW6pCYtFKj6OfT29YbzZ8+KpWWY/0YRaveuXeDdtbOwDI9O+op+M9ZoDAbqqnmG6o0/3lBijT7FUBr2C+k100RT/b68OyGXPJQhfj6Qk5UlFLZEigGePCuGh0+fQf4TmR6wKpzyH9NjERQUFgH+V2pOnjgBQd5e0AB9Rf5S9JtB4wa0wCBPq57KRx3KSiiTQeGhs021Ne4rLqkj/ZeWsghDeTn/Cey7ng9bL9+DzZfvwm/4uIVVYUTHc/Olu5B+5T6cvP0I7mBA8bCXiuzz54WTPC3VfDWUtClav1GDPP3GDTmUA8P6zHpXoXyKqaRAzj52HYYdvAwR+y/BwAOXYRCrwmjA/ssQvu8SxBy+Amuzb8OFe4+Fk3FpyDp3TvATh/INYI0qYffV+F2HcgeeSWMwkD13ZkOH9CzwyMiGrqwKo87p2dB+Rxb03nMBFp3Og3N3HpU6lOQjDuVbwBopJZQ7sVsTd+gKBO++AF6ZOeCz6wL4siqMvDMvgOfOHOiHreWSs7cg624Bh/JdgTVSSigzMZQTsWtDZ9Keu3LAD8Ppz6owomB2x5PtAByaLOVQvluwRhxKlmRxKJUI1ohDyZIsDqUSwRpxKFmSxaFUIlgjDiVLsjiUSgRrxKFkSRaHUolgjTiULMniUCoRrBGHkiVZHEolgjXiULIki0OpRLBGHEqWZHEolQjWiEPJkiwOpRLBGnEoWZLFoVQiWCMOJUuyOJRKBGvEoWRJFodSiWCNOJQsyeJQKhGsEYeSJVkcSiWCNeJQsiSLQ6lEsEYcSpZkcSiVCNaIQ8mSLA6lEsEacShZksWhVCJYIw4lS7I4lEoEa8ShZEkWh1KJYI04lCzJ4lAqEawRh5IlWRxKJYI14lCyJItDqUSwRhxKlmRxKJUI1ohDyZIsDqUSwRpxKFmSxaFUIlgjDiVLsjiUSgRrxKFkSRaHUolgjTiULMniUCoRrBGHkiVZHEolgjXiULIki0OpRLBGHEqWZHEolQjWiEPJkiwOpRLBGnEoWZLFoVQiWCMOJUuyOJRKBGvEoWRJFodSiWCNOJQsyeJQKhGsEYeSJVkcSiWCNeJQsiSLQ6lEsEYcSpZkcSiVCNaIQ8mSLA6lEsEacShZksWhVCJYIw4lS7I4lEoEa8ShZEkWh1KJYI04lCzJ4lAqEawRh5IlWRxKJYI14lCyJItDqUSwRhxKlmRxKJUI1ohDyZIsDqUSwRpxKFmSxaFUIlgjDiVLsjiUSgRrxKFkSRaHUolgjTiULMniUCoRrBGHkiVZHEolgjXiULIki0OpRLBGHEqWZHEolQjWiEPJkiwOpRLBGnEoWZLFoVQiWCMOJUuyOJRKBGvEoWRJFodSiWCNOJQsyeJQKhGsEYeSJVkcSiWCNeJQsiSLQ6lEsEYcSpZkcSiVCNaIQ8mSLA6lEsEaKSWUOzGUEw5dgWA8gF548HzwINKBZFUMeWdeAM+dOdBv3yVYcoZD+U7BGikllNsv34PoA5fBKyML3Hach07pWdCZVWHUcUcWOG8/D0F40l146iacvfOIQ/muwBq981AW4tE5eOMBfH/iBkQfyoXIPy/DsD9zWRVIQ1EDD16G8Uevws85d+DS/cccyncF1uidh7IYD86/BYVwFrs0R28/gsP/PoIjrAqnQ6jjdwog98ETeFhYBKXMJIeyJLBG7zyUDPM2OJQlgDXiUDLvFQ5lCWCNOJTMe4VDWQJYIw4l817hUJYA1ohDybxXOJQlgDXiUDLvFQ5lCWCNOJTMe4VDWQJYIw4l817hUJYA1qhUoezj7wsXc3JkVWWY/wHyEfmJQ/kGsEalCmWInw9knz8vqyrD/A+Qj8hPHMo3gDV6ayi16tUB1eqVwbtrF0hPT4eLl3MhKzsHzmdls1iSRL4h/5CPyE+q1SoL/lL0G4cSEUNpNCg8dObrQqnToC5o1KkJ7extIW78OFiwYCF8/30CJMTHs1iSRL4h/5CPyE/kK/KXot/kodRtWL+XaNGPDwzlpxhKw4GhfWa8LpRYIKD/11RfB9rYWIN72zbg6ugALq3tWSxJIt+Qf8hH5CfyFflL0W/yUGrXVwkWLfrxgaH8DEPZdEB4aLyJtka+7iuhJBmoqYKeaj3QVKkF6rVrCGc4Fuu/iPxDPiI/ka9e9Zqh7P/dsjYz7o/e/EK06ccFBrJa7vXrrgP7hi0309V6pNNA5f8VikRnNOpq4BlMkA6LJVHPvYM+erWFfO4z1fpgrKl+D8ecX6M39agnJ1r14+H8+fOqv29PHzYwou+RZvo6hdr1ar+xYCyWMiWc+DG0TXW1n/QPD9u2d+/egKzbt+uIVv14WLNmjfbs7+KT+/QKvm/eRBe06tb6f6HUpRayXh38t9os1v8uPPGTn14dKpHv6N+b6etCRGifGwuTU+K3ZGZqiVb9eBg6dKhhRN++m7p37gRmetrYvXh5ipoK9TyULNY7EvlMFsqXGwAKbFM9HfD16l40cuTI9ZMnf2MoWvXjAPvstWNiYjq7t3P6s5V5UzDSaCwMwOUFkk9X2+C/uTu3BQ/39tAV5eHmymJJF/mngxt0ae8Kzq3toYWJkWwSUaHF1G1YF4y11MCxpRV0dnPdPXjw4NY4rvxctGzFJyc3t8WkuPHTHVo0v0QDbJK8ONRC0mwZjjOhb2gfmJOYCCmLF8NiVErKIhZLuhanwA8//ADJyYtgxoxvINDXB0x1NAWfvTRkwj9TWG3MzU6Nihox+OHDh5qiZSs2cXFxlXA86R89YvhuO0vzAk0sjPyMRQXSw4BqYP/eya4VLMaCZl+4ALlXrwq6fOUKiyVZuagr6J9Lublw5uw5SEyIB5tmZqBao6rgN3koyYcUVDsL87sTxo9P27l7XydsLSuJ1q240PXJ2NjY0b2DAvMwlMKYUV4Y6utTYcyNDKB/RAQcOXIEf5xh3i27d2WCb/duoK/WSPCe3H/kPZrwcWrVEoYPHZo7JylpuGjbik1WVlad4KCgWe4u7YqssG9PkznyLgQtEqbxJPX/U1JS4PqNm2IZGebdgR6Er6dOhbbYGxOugWPDQP6jYRRdGrG1aAY9u3V7NqBfvynYs6vY40qsR/UDhw/Y4wf+ydLUiC7WvtSnb1yzGmio1IR+fXrDn4cOweMnT2VVZJh3yP3792HL1i0Q7NtTaAhotY/gQfQiBdNMVxNaNW8GXh5dfjh48KAxPqWyaOGKx7Vr1/RWrlkT4+3p8TcVgVpJeSBJarWqg65qPRgTFQVXcBzAMMri3PlzMHJIpNBSku8UfUgzsTTh08Oj097Nmzf3ffDgQWPRwhWPJUuW20+aNOkX7J7m0yUQxWuT1J/XaVAPbPAM9f1338HDhw/F8jHMu+fe/XvwzbRp0MywCWgqzGuQhHkO9KNXl455iYmJP27btq2FaOGKR+SAyA7+vt7/ODvYPT8jCYHEgggrKproQrC/H2zcuAkKC5+J5WOYd8/TwkJYtmwZdHJzBUMcRtHaWHkwqfU0wMdOrs4QOWjQgfGTJrUVLVyxwDp86uvlFeTQ0irX0sRQ+PD6jcRZVywCjScdWjTHAfgU+OfUKeF7QRhGWRQVFcHeP/6AkcOGgpWpsTCulC+/k4fT3soSOrR3ze7Zs2c30cYVh+Li4io7d+5s0bdXrwRzQ717skCKEzzYd6ezlMrnn4KLQytY+9MauJ+fL5aOYZQDnfNv3rwJS378Adq1agn1q3wm+FDuTZKxtgZYNTW7FREeOv5uQYEBPqXizMRevHix7pq0tOGR/SKONjfQe0pdVXko6VEYbNepCf5enrB/3x9C0RjmffDH3j3Qo3NHUK1eVQzlC1+ST5sb6D8aMWzI73sOHAjKy8urJVq6/JOalqb2bXz8/IjQPgWWRjiwVnmxI4SuC+njo10LC5gcNwFyci6I5WIY5XPu7FkYMnAgGOtoY7e13vMuLPmTVpthKIv6hYfdmLdgwfStW7eqipYu/3zzzTfGEeHh67t16ihsjxGCKIaSljUZaapBkK83pKWlwd1798RyvZlCHKRfvHQJMjMyYO2qlbBmxXJIW72qZOHPrl21Atbinzdu+AWOHz8Ojx8/Fl/1ZagLfezvY7AZf271slThea99TVaZEfmA/EC+uHTpMjx7VvJk4Y0bN2Du3LnQ0cUZDNUbYetY63koaRYWe3bg3b0bDB02dNm8efM0REuXb2g8OWnSpE6uTk67rcxMhADKF6DTB1etUQVMtDRg1MjhcOToUXjytOQFA5cvX4bFKSng59UdrEwMwcJAH2zwtUuWMf68AVibmoBzawcYN3YsHDp8GJ48eSK+smysQUHdu3cvxI4ejeNcOzDX1wFr/D2vf01WWRH5gPzg38NLWBGGwyZhQudtPHz4CHZmZkJkv37oQ3VQq1XteYNBVwdo4bqTnS14du2ydcqUKVb4lPK/Fnb7rl1m48eOmdLa2iqbPqx8xlUeyrpfVAJjDOq330yHO9hKYohl1XoDjx4VwJbNm4VAamKLW+ezT6B2pU+gXuVKJQt/F00okRrVqgH2La1gXGzsS2tsKZDUglJXmraONaheBWp9+gnUxee89jVZZUbkA/IDXe/26eYJP2HreePmTSh+y/evU2ivXLsG06d8BabYODSo+vnzUNIjLSIw1dGCtva2/0ycOGHI/qNH9URrl1+WrVzZI2ZUdGY7u1YPdJ5vMJV9YGox1WrXAAcrC1iJXcSSoALSmHPGtGlAY9N6VT4TXk/+WiUKTwj0s7KFCirQuE4NsLWyhNSlS8TfAPDv7dtCN7qHR2fhvZGE1y/t72B9OOExIj80xGDR3SzGjYmBv48dg6clXPOm3tni5GSwxp4UTfjQ68gbDvIKdWPb2FjfiRk1av3ajRs7iNYuv0ybNm3ogH79brazsymmDycPJT3S9UkLIwOICA+FPXv2iCV6M4+xm3ngwEGIGj5M6FY0qPrFSwUsvWTBVPniUzDEVnp+4hzxN4Bw1qS9d51c2oEarcXFMe/rX4NVFkV+aFitMpigP4YNjoQ9e//A3s+L4cmb+PXXzdCtS2dooi7bcE8hp9eThbI2tGlpVYQ+Pjt95sxw0drlE+yK1goJDpzq3tbpGZ2F6APKL8zSrRloFrZDOydISkqCizhOLImneEY78c9J4QxIi9nrYHeFLqcoHpTSSL6CiMazrSzMIfXHH8XfAHAdB/5Lly7FgX9b4eC+ui6SVbZFHqOuLM1dDB8yGPbtPwBPSrGx4Z+TJ2FiXBw42lgLyz9pMlJ4PfQKNSA25mbg0bFDft+wsNH44+VzXEkTPMeOHbPv3tFtOY4Zi2kFvmLxNOherth9DPb1hp07d8LDR49k1XkLNDK4fz8flqcuBVcHO+H5Wlg8WulPr0chL0my31tT6JJYm5nCQBzg79q1S/YLEJp13b59O4T3DoYmao2w+1pTeP3XvRarDAqPlVrt6tDa2hJmz5wB586fh2fP3j7ZQ9y5exc2bdqIY9GuoI7Pl/eQhGELinpmVmYmRT26dkm8cOEC3YLyM9Hq5YesrCztdevXx/j36HacugPUMj0PJX5IdSygFrZyI4cOFqavSwsF8/Tp0/DdrFl45nIHIxyEN8QWr17lz4QvBKIu7ZtE/06TPLTj3MLYCAZGRMDPP/8stI5y6HLL1atXMfjLIMDHG0z1dIXJHvpSmJJen/WhhMeGjg9KA0+2jq2sYSz2pvb98QfkP3hQqiWbRfhDp8+cFrYNUg+pMfWQ1F7ctJlaYGMtdfDx7Lpz7dq1va7ev99QtHr5YdmaNZZTp01d5+vV/SHdGItaJvkHpLGkrmoDaGneTAjXAyycFGgx8Zlz5yB1WSpEjxwBYcGBwrcphQb4QWjgW4T/3tunJ0RgKzhx/Dg8M26Ga9evi6/6Mpcu50La2jQYO3o0hAYFCF+hFhqAet3rsj6s6Ljj8aFjNCgiHOK/+xb2HTgADyTuNLp16xZMHBcrLK/TqvdigTqJ/EvXMQO9va/Pnz9/4a79+81Eq5cfBg4c2Nbfx+ewq5Oj8GHkeyfpg1I3w0xPB4L8/WDDLxteuk5YWujC8F3sclzJzYULOTlwITtbppy3CP89JysLLl7IgWvXrkF+Pp1FX38apZle2gxLrab8uSW+PuvDSH5sUJcuXoS8vLw3Lgp5G49wCLVi+XLo3qUTBlNT6N3JJ3wolPR9I96eXYvGxcZmzl2wwEG0evkAP59KeJ8+IfbWLXKaG+oL22Ce7wjBbkAj7A5amxrDxAnj4diJE6VaecEwyoaGLgcO/gmjvozC8aOxMMlH3Va5b6lxaWPdArq6u58c0Levh2j3sg9+ti8u37plN3LIkLmWRk1u6dJ3hChM8tCHo1nPdratYOmPP0Lev//KKsIwHxjqNdFd75IS54C9RTNoIF4Hl3uXRC1nUz3t3JCggOgzly5p4NPK/kzsnj2nam3csmVg1Ihhh61MjZ7K7q0payXpA+mitFF+Pb1gz57dUMitJFOGoIUEG39ZD21bWYPK5y9fcqNZWPJzsya6DwYPGrBh85Yt3S8VF1cTrV92SUhIqD31m69nR4SF5ts0MxXGj/JQyheiW5s3hTExo+E8f206UwY5fOgQhAT4g76aKraUdAtKhZ0j6Gf0dfGQyEFXFy5ePGnPnj1lfztXbGysWnBQwFIPdzeg8eRLO0JUZNd+enTtAqmpqcImU4Ypa+Tm5sKc77+HDs7t0Lt069MXO0do8ocWwgT7+RaPjo5elJSUVLa3c9EKnhUrVrh0cnHebmlsIHxHiHz2itSoRlVh0mfE4EFw+MiR/zRDxjDK5sHDR7B9xw6I6BOCflV9aVUXjTFpIYGjdQvw7Oi+fv6c+eb4lLL7XZZnzpwxxTPHFDdHh3O04PvVW0jSRXtTXS2YOX2asPBbCnQN6Z8Tx+Gvw4fhbwz033+xWCUIfUJ++efECcE/peVZUTFkZWfDhNgxQsNCjYmij4Wld+htHHceTElODr2Wn192W8vFixd3jhk1KsOltd1jYf2g+O3M1OxTi6mJH8TR1gaWLV1a4j43RSjAy5elQm9/X+ji6gzdO7RHuYFXR3cW67Uif5BPyC+9A/wE/0hpCGjzw4KkuWBpYgSNFXYKkZ9p8oe6sW5t29z87rvvUg8eOVJ2r1mOiBoRGuDne7VNq5YgLD4Xp5OpyaexpblREwgP7QM7d2aKH71k6Ay3bl0a+Hv3AI26daDmJ7K9jbQPs25lFusNIn+gT8gvGvVUBP+Qj6S0mBs3bgDPzh3BQENNaBnlK3wolPR3NyfHohHDh5+MnzPHR4xA2QHf/6c4nqwRHOg/xsnB/gGdXahllI8n6YZEtMjX1dEB5iYmSroPz9G//oK+oSHCvTnlO0vo9Vis0oj8Qr4x1FIXfER+Ki1H//4bxo2NBTvL5sLryC+PUDhJ9J0jnd3d7gT7+0fij5etBeoUyOOnT7fu0ytoibmhfqGBeiPZgoFGsj447cygRb4+nh7YSmZAQUGB7FOXgt2ZO6F9Gweog2c9YTuN2IVgsUol9AuFk/xDPiI/lZZb/96GVatWYRfYBRrjuFK+qYJmZKkra6KtAZZGBk96enrMOnvxYhN8Stm5BeWZM2c0NmzaFBPeu9dxY021IsUdIfTmha1P2IUY1DccsrKkXZukIrq2thduySFc8xRbXxarNBLmMtA35B/ykZRQ0l1Ejhw+An0CA4RdTeRjxa9l15EtUi/s5e+7PT0zM+jS3bv1xEh8eFJSU82mT5++wr9njwK6+ZDiHcGo702PNhbmwtePSenTE4f//FP4KgNdPDtR94FaSxqjslilEflFGAOiH8lH5Ccp0IaEsTGjwcxAH3Tw9WQLCWTB1MKg0nauPkGB11IWL/5+S0aGgRiJD8/w4cOtAvx8MnHgK9wES1jvim9atiOkJpjpakGgnx+krVtXqs3MilzDoixdsgRCggKhhZmJcFmFbpCk8tknssE8i/UakT/IJ+QXKzNTCAkOFHxEfpJCfn4+JCcnQ8f2LsLdDLTqvWgtaaxqil1YX6/uxaNGjfpt6syZZWM7V05OTtV+IcHdbS3Nj5sb6Akr6eXL6iiUDat9Idzkiu4OR98RInWtKy0Spj2PGzZsgKgRI8CjvSs4tbSCdq2swcWuFYv1WpE/yCfkly/RN+Qf8hH5SQp0f59du3cL9/sxb6InfOeN4qURuo7pbG8L3T26/BkZ2b8dPuULMRofBnwDn21NT7ceFjlwVgsTo2vyKWO56O80LW3T1BR+TFkED7CVlFaSF9y+fQdOHD8hjAl2/L4V0rf9Dhnbt7FYrxX5g3xCfjlx4oTgn/9CEQ4sr2KYE+O/E+4t26DK54Kvyd/ycJrqaICDlWXOqC9HfllQXEwTPh9u50gGtpIr16zpN2Lo0MO2zZsV0ATP8zeMj/Rnrfp1watzR9iBRWKY8sizoiL45ed1QotIt4YRPC4GknxOY0trU+N7UcOHbdyyfXt3fMqHay0XbNhQferUr6dFhIU+sLMwF6aM5aGkaWj6s0NLa4gbPw5Onzot+4QMUw7Zt28fBPn5QhMNNcHX8oUxQijR9zbNzIr7h4ddnD179mjsKlcXI/L+0dTUrObt5TWnM/bbW5gYgi4GUd6k0zQ0vXlfr26wevVqyLvFm5mZ8sv5rCyYNm0atLW3E3wtv+eUPJTYU4TeQYFPY2Jjv01MTKwpRuT9gu+z0owZMxrbWlmkmBvoC1PD9AbpjZKEWyng3wf3j4ADBw9CQSluiMswZRW6BeWGjRuhF7aW5Gu6vak8lHTZhb7DxKODGwT6+yaFhYV9mD2WxcXFVQ7t32/n7GDzs/DmxBZSrsY1ZLNU42NGwaXcXMmzXgxTlqCrBn8dPQrDBw0UQtm4VrXnXiefm2KjZGHUBMNpNM/B2PjDhBLfZ/WTx497eLi2+11fvFCrGEpVHBDTm50xdTI8krCsjmHKKvS1eZNiY4VQKm7noi8BEpbzYZdWo1b1JONPPvlgoax64uhRF3dH+82KO0Lkali9shDK2V9P5bvVMRWCe/fvw7SJcYKvqdFR9LshBlMMZ5Jx/fofLJSf7fjtt6Y2ZsaraAWP4niSRHesozPKlAnj4c6d/3aNiGHKCjT4ys7JgTFfRsm6rzVl3VcKKP2d7kZg3dQMbK0s5jk4OHy4+/bExcWp2lqYL7I0bCJ84Sa9QfkSJPXaNYQ3Szcg+u2334TbxzNMeeXGzTxYsmQJeHXpJPiari7IQ0kreyyNDaGTW3vw9fX+cBM9RHR0dK0gv4BEukkWXRKhOw08v+kyvlF681ZNTSFywABIz0jnsSVTLil4/Fj4qrxAH28wxhaRfE0in9MjrYe1aWYGvQICHo8eM2bm0qVLa4gRef+sXr262oxZ307q1zf8jq15U+GemPri7fho4EtnEW0ca1Iw6VuskufPh50ZGcLXjp3Pzha6A+ezslmsMiXBl+hP8in5ddGC+RAa6C981YaacB/jF1caKJS0gd/GzOTp0MGRJ5ekrhiSkZFRVYzI+wdPIpXXbdrkEx01YoudZfMC+o54YWyp8KblzTu1nPYtLCAiNBSmTZ0KCQkJMGfO95AQH89ilSkJvkR/kk/Jr+Rb8q+sJ/iyt0mGao3o7nb/xsaMXvTHkSNtMRcfbrMz/vJKhw8fVo+Oihrk5GB3obmRgezs8cpMLN1ES9i5XU9F+OZmuocPbTil24O44COLVZZEviR/kk/Jr7RFiyZ2qHFR9DUFlXZFOdm0BO9unmenTfsq5C5AXczFh7/l5OTJk83DQkPTOrg6P6SvtZZvbFb8ACRq6ulaDg2SqavLYpVlkU/Jr/Lxo1zkbfp/OtjY0C1Te3Ttkhc7ZszilJSUsvP1eFeuXGmwcvXqgQMi+u62ad7smbDkTnzjiuGkPwu7wbEbQEuTaNG6sDOcxSpDeu5L9Cn59VUPy0NKl0FaWZg/iQgNSdu4caPnqVOnPtys66tgc/1FcXFxk+TkBYP7hobsxWa/0EhT9kWx9OHkH4jFKs+SLT6nu9qpgLlhE/pag8KIsNA9c+LjQ9D/9cU4lC3wjeksX758UJCf35bW1i1utGxqCub6OviBZPfqeS48+7BYZV8vPEuto7FGY+EuGnYtmj9zadvmSkRExOZVa9YMwkZJV4xA2YMGuBdu3lRLSEjoOCoqKjEsJOSym1NrYQmSsNcSP6ggVZLsWg+LVXYlBhM9S91WWiDQs6sHDB865GRMTMzXM+fMaXcT/Y6+L1v3fH0d+CYr/XPmjO206TPG+nl1S3WwsvitvaPDcQ931xsd2jndd3V0eOjS2p7FKst61N6x9UO3tm3udXRue6V9G8dDHV2c1w8aODB5ceryYRf//bepaPfyAwbz8/Xr19eaPn26dmJiomtKSkoMtqBLJk6Y8EvUyJG/DR86dAuLVVY1bOjQrdFRUVsmjB//88xZMxemLFwY+dOKFbbJycmNMk6cqEkNj2j18gntvaSJoMPHjtmvTktzmTcv2S0hYa47i1WWNXf+fPdVa9c6HzxyxAb9qynamWEYhmEYhmEYhmEYhmEYhmEYhmEYhmEYhmEYhmEYhmEYhmEYhmEYhmEYhmEYhmEYhmEYhmEYhmEYhmEYhmEYhmEYhmEYhmEYRjl88sn/AQsJkm+MGd2/AAAAAElFTkSuQmCC;" parent="1" vertex="1">
                    <mxGeometry x="80" y="160" width="80" height="79.65" as="geometry"/>
                </mxCell>
                <mxCell id="6" value="" style="endArrow=classic;html=1;strokeColor=#FFFFFF;" parent="1" edge="1">
                    <mxGeometry width="50" height="50" relative="1" as="geometry">
                        <mxPoint x="440" y="130" as="sourcePoint"/>
                        <mxPoint x="200" y="130" as="targetPoint"/>
                    </mxGeometry>
                </mxCell>
                <mxCell id="7" value="" style="endArrow=classic;html=1;strokeColor=#FFFFFF;" parent="1" edge="1">
                    <mxGeometry width="50" height="50" relative="1" as="geometry">
                        <mxPoint x="200" y="110" as="sourcePoint"/>
                        <mxPoint x="440" y="110" as="targetPoint"/>
                    </mxGeometry>
                </mxCell>
                <mxCell id="8" value="" style="endArrow=classic;html=1;strokeColor=#FFFFFF;" parent="1" edge="1">
                    <mxGeometry width="50" height="50" relative="1" as="geometry">
                        <mxPoint x="440" y="280" as="sourcePoint"/>
                        <mxPoint x="200" y="280" as="targetPoint"/>
                    </mxGeometry>
                </mxCell>
                <mxCell id="9" value="" style="endArrow=classic;html=1;strokeColor=#FFFFFF;" parent="1" edge="1">
                    <mxGeometry width="50" height="50" relative="1" as="geometry">
                        <mxPoint x="200" y="260" as="sourcePoint"/>
                        <mxPoint x="440" y="260" as="targetPoint"/>
                    </mxGeometry>
                </mxCell>
                <mxCell id="11" value="&lt;h5 style=&quot;font-size: 14px; line-height: 19px;&quot;&gt;https://www.example.com&lt;/h5&gt;" style="text;html=1;strokeColor=none;fillColor=none;align=center;verticalAlign=middle;whiteSpace=wrap;rounded=0;fontColor=#FFFFFF;fontFamily=Noto Sans JP;" parent="1" vertex="1">
                    <mxGeometry x="210" y="80" width="220" height="30" as="geometry"/>
                </mxCell>
                <mxCell id="13" value="" style="shape=image;verticalLabelPosition=bottom;labelBackgroundColor=default;verticalAlign=top;aspect=fixed;imageAspect=0;image=data:image/png,iVBORw0KGgoAAAANSUhEUgAAANoAAADbCAYAAAALQY9+AAAAAXNSR0IArs4c6QAAAARnQU1BAACxjwv8YQUAAAAJcEhZcwAAFxEAABcRAcom8z8AABadSURBVHhe7Z0JXNVV2setqalMS4XLvi8iKqAomqCi4oKAAuLuOLn0qqSomU6bjjW+jdWU2kzaFCWoLWZaaTX1ttjikqO45S6iILuAyi6gPO95/vyvHbdE5Fyu8Pt++nWxBD73PM/3nvPfmwEAAAAAAAAAAAAAAAAAAAAAAAAAAAAAAAAAAAAAAAAAGoRNmzY5zZwyJSSsb88xPu4uU1wNFrFabAxIA8ZZr0FwQJdpI4aE/Sk8JLj/1AljPInofr104E7g8REjWjw7d26nKRPGz4kJH/xFr67+xzu4OBa6GdqUullZlLpbWyINGFdRB37t7tehZGCvoFO9unb+sn/gIwtjJ00KX/Tcc84/JPwA4cydDWvWOMSEhk4K6uS3vpuP92H/dp7Fvh6u5O1oR562VjWxQxo0eg183V1I1Ic6uDqVeDvZJ3f19toSOXDAm0/PmRMhZrd79ZICc0IU5q43Fy92GR05ZHafgC7bOro6awV1MbQhMYuR+AQldxsDYkbhuriKuInaiFmO2jnYUg8/n9Lwvn0+HRE1ZOTCefPs9PICc+GjxET7cdGRcYF+vvt93Jyr2tpZawU05nqFRho2v9VGRLx62Bqorb0NtXd1KA/o2G7H6OghcfuP73fQSwzMgeHhoSOCOnfa4ePmUs2SceEg2J0XbQVibUHtnR2q+3bvunfSn8c8tWXLFie9zKChSEpKund1fLxHv0e6vdXBxanaU5/J5OLxnx1aP0TWLR4gq+b3IWYQG1EL+4dbkLNl62vqxctJD7Hs7+zlTr27+R8YEx05NSokxEIvOWgI4pcts549PXZacID/bk0yfc0vS2bcDuDiIeYRdxFjbYz1kWvGr15iGenlaFfl7eSw2cPeJiY4uNk9etmBqYmdPNl7VGRYYqCfT6GxcMaCcfhTk1+HhYXSogXP0fKlS2j5sqVIA+ZfS16lF+Y/QxPHjKLATj7k2OZhsn2o+eUPQ2PtjDtLXCzblLhZWW5yt7WItLW1ba6XHpiS4IDOXYP8fX/q3Na9pjj6p6H2SSnW+14OthQ1aAC9l7CScnNyCJgH2VlZ9M1XX9ILzz5DocG9hGDW5Ni6pbaU5NnOKJsxoq4X3K0N/3G1s4zwsrBoqZcfmIq2TrZBYnlxgI+TyYVxsmhFDq1a0pD+fWlNQgJlZ2bqJQbmQnFxMSUfO0prVr5DIyLCxMzVmuwefvCKOhrjIeJmY1nsam340s1gGCZK/4eaDgDKEbW6K7Rv7zCx3Ei++jgZ7/zgDe7pkydSWmpqTWWBWXJGrDQ+SEyk4WJ5zysR6wfv1/Y+ystIFo3/zDObm5Xhcxcri6HtDYYWeisAlYga3TU+JmZYOye7a0SzF7MZF2xu3HQqKiysqSgwKdXV1VRWVkolYuaqrKjQ/+v1yc3OprWrV1HM4EHazOYglpEsm1zTy7G2LOdlpIdYRmKbzUT07t5lgIed9RE+C0QuhlG0eTNnaIUGpuXixYuUkpxMX3/5OW1Yt5b+u30bnTt7Vv+/1ydHbLd9sCpBm9l4W82mZfMramqMp23NMlJ8/YWbrVV0M+yNVI9d65aBrlaGg9pBaqkYRtGenPE4FZ4/r5cSmILioiL64dtv6X//Op8mjR1No6OH0qxpUynh7bfENtkx/W9dn5zsLHo/YSUNGzxQW0baCtluvIw0XHCzMWx0tbaMsMAOErU4GVoHiQE/BNHMA57Jdu/cSbETHqV2jnYkVhvExzfFUo+Cu/pT/PI36GxBvrasvBG844pntmFiGckzG29vs3RyfY0R22yl4v99ybK1b9/sj3pbgPrGzdbQE6KZD1mZGfTOmyuot5Cq1R+aaTXgY5mt7rlb2xMcO3ECbd/6M5WXlenfcX14GcmHZHhmY9n458j1NcbTRsxsYhkpZrZNLnYWQ7t0aYaz/lUA0cyLQwcP0AvPPU3dfTuQ3UMPXt6hwfXgk4ZHDo2gj9d+UKuaGGWLDh2gHRO15Z8npLtmGSmi7Y20MXwmpBuMZaQCIJp5cViI9rf5z1KPTh21mexK0axodNRQ2vDRh1RUy5pkiWVkjWwDLx8b/Z1lZLG7leFzVzvriIXNmt2ttwioDyCaeXHk8CF6ceECCuzse41ovK02dlgUfbp+3S0dcuGZjQ9qs2z886xEXYVUV8xsUkrauzp9FhwQECG2A+/T2wTcLhDNvFAhGsM7SFi2qEH9tZ9p36rmzH9ZNqN83k725T38fDfOeuyxQevWrcNB7foAopkXqkRjMtPTddkGaMtI/pksl1x3Y/zbeRbFDA7d+Ozs2eHiW+/S2wXUFYhmXqgUjeGZbfW7xpmtZm8kb7MZZzYWj//c3smeAv06lg4PD13/5IzY8NzcXMxstwNEMy9Ui8YYZYscGHL5OJvx9xjDl9jw72PZYsIGffLUrFl94uLisM1WVyCaeWEK0RheRq5+J16b2RzFMpIPJcj1N14ALLbXqFvHdtlDBoQsGzcy2l9vG3CrQDTzwlSiMVkZ6ZQY/zYNHRDCF4eSTcsHrlhGcvi4m5eD7aUefj7HYyIGTxffhntG1gWIZl6YUjSGZ7ZVYmaLFLI5W7bSdpLIx9l4ZuPe8PVwrR4c3Dtxw9q1HRcuXIhjbLcKRDMvbibauJho+mzDx/UmGpOZfppWiZktSmyzsWRXLyP5Eiq+0r7fIwFJ82bPnPLqqwst9fYBtQWimReHDx3U7s3So5PPDUXb+Ml6Ki0p0b+jfsjKyKAVy5ZScIA/OYtZjbfPjLv+WT7+OqiTb/7YYUPjZ82a5qW3D6gtEM28uNGMxnsGeduJj4GtSXiXzp87p39H/cBXA+zdnUTzZk6ngA7ttCWk8Xcbhevi3ba6X2D3byMG9cNOkVsFopkXJ0+coKUvv0S9xcyinVRs2VqrBzc9zyz+Xp70zJzZlHz8969LqwslJcX0yccfaadqseS8N1LuiQ4ujuTj5ryvk5d7oN4+oLZANPMiPy+PPlyVSAOCepDhgT9qyziuB88qLJpj64dpUK8g+ve//klHxDIzJztbfM8ZLXk3yZncXMo7c4bKy8v133Ytx44eoamPjtfuF8MnIMs9wVfhu1pZHuWe0dsH1BaIZl5crKqibT/9SDFhoWR5/73aEs5YE5aNDzB72dtSSI/uNC9uBsWvWE7vJyZoeS9x5e8mIf5tbdnJP/9sQYH+G6+Eb5cwZ3qsVnue1eSegGi3AUQzP9JOnaK/zI7j++drS0bjtpIxTm1aiZntIW0ZGd4vmKIHD9QSFTrgdzOkfz+KHNifJo8bQ/FvrqDTqaf03/gbfH+YuTNnXFc07hHRK0cgWh2AaOYHN/unH6+jUZER2izGdyGWa2NcRt5qWFieEW1bNKdBvXvSJ+s+umbvJdeaaw7R6hmIZn7wHsDMjHR6bfGL1MnTXasDi6I9nkmvD8vG4vDtwHl2q224rq3vvZv8PNzo+WeepkO//nrF/UcgmiIgmvmyZ9cu+susmcS3a+cdI3ZiZrt6GXmrYUF5byY/aDJ24qP04/ffQTRTANHMl6qqKtq9a6e204O3x/iANZ8mxcfUnMRMxsvAWw3vXGFpfd1d6eknZgmZd0I0UwDRzJuKigram5REr//jZRoTFUnezvaaKJoIokYsXa0j/r6dkKf1PXdTz85+2jmOZ/Pz9d9UA0RTBES7M+CTfzeuX08L/jJXOw1rSEhf6h/0CPXp3pX6dOtKfcXrzcK3sAvu1oUi+vWhRQvm05GDB/Sf/hsQTREQ7c6BDzTzRZu7dvxCG9aupRWvL6XXXvq7ttNkycuLb5pXXlyk/X3eo3kqJYWqKiv1n/wbEE0REO3Og7ep+IDz6dRUSjmRrN2jn0/duln4tC3++793niREUwREAzIQTREQDchANEVANCAD0RQB0YAMRFMERAMyEE0REA3IQDRFQDQgA9EUAdGADERTBEQDMhBNERANyEA0RUA0IAPRFAHRgAxEUwREAzIQTREQDchANEVANCAD0RQB0YAMRFMERAMyEE0REA3IQDRFQDQgA9EUAdGADERTBEQDMhBNERANyEA0RUA0IAPRFAHRgAxEUwREAzIQTREQDchANEVANCAD0RRhCtFKqi7RwfPltOVMCf2UW5Ofkcvh8fgxp4S2ifFJKa6giku/Pa/M1EA0RagUjdulVEi2M7+U3jiWR0/vzaKn9PDXSE20MdmTRfP3ZdO7Jwpo79kybdwaAoimCJWiVYlP5n2iaf55NI+m7EinUVtSaexW5EYZtzWNJm4/Ta8dPiNmtgv6KJoWiKYIlaJduFhNmzIKacbODBr+0ymK+vEkjfj5FHKDxIgxCvn2BP2P+FDaU1Cmj6JpgWiKUClahRDtq6wieiKpRrShQjRuJuTaDBOJFgn9PoVm7cqgX8VKoCGAaIpQKRpv0x86X06vHzlDY8SycfDmFDGriYZCrgl/CA394SSNEUvIJWLpeLK4Qh9F0wLRFKFSNKa48iLtyCvRdob8dX82Pf9rDr0g8jfkcng8nhdjs+hANsUnF4jxKqXzldgZ0qhQLRpTdvESZZRVarv494glEYf3rCE14fHgnUaHxfjklFVRpVgKNNQOfoimCFOIZuRSdTVdEE3E4WNFSE14PFguHp+GBqIpwpSiAfMHoikCogEZiKYIiAZkIJoiIBqQgWiKgGhABqIpAqIBGYimCFOIxnut+Wz085UX6VwFoiKFYmz5eOXtAtEUYQrRcsuraHNOMX1w6iy9p+d9pF7y3smztEZkXeo52nbm9s8ogWiKUCnaJTGT5QjJ/pNZRM/vz6Gp/02/nGlIvWTqjnTtEqRY8fVLB3Npe16JtnKo66FviKYIlaLx2Q58BTFLNn5rmnaWOl+ThtRvRorwydoTt6fRW8fz6GhhufYhVxcgmiJUisbXo32WXkiPi09bvkwmGtejKclwkQg+818I98qhXNpdUEYX63g6F0RThOoZ7cfcYnpmb5Y2m4VtTqFIIRtSv+FLbELF2I7bmkr/Pp5Pxwsr6nzeJERThErRuNRpJRViY71AbEuc1j55x4olJF+yj9RfeExH/pxKT+zOoK+zirQ9kHUFoilCpWgMn52eXHyBNmWcp5Up+fTOiQLtBjRI/YXHNDGlgL7KKqT0sgrtcEpdgWiKUC2aET7Gc+ZCFaWXVmrJQOolxvHksS0VY3wbjmlANEWYSjQj3Ah8pIdfkduPcSzrC4imCFOLBswbiKYIiAZkIJoiIBqQgWiKgGhABqIpAqIBGYimCIgGZCCaIkwhGp+KlVlWSceKLtDRwqadI4Xl2mtqSeVtncGhCoimCNWi8cmtx4VgH5w6R/84nEuvHDrTpMOXsvDr28cLaEtuCRVV3v5B5voEoilCpWgsWbKQbFXKWZqdlEl/2ppGf95Wk0ebaMbrmbT9tBAul3bll1JRAz0L7XpANEWoFI2fJvN1ZhE9KSQb9XOqdpnMSOnyjqYYPvmXr2SI+CFFezwTXyWdLpbV5gJEU4RK0fh6tM8zCiluZwaNuOp6ND6TvymG3zs/oomvH5u84zQlnDhLpxroyTHXA6IpQqVofK8YXhq9eCBH+xQf+P0JGiIajB9P1FTD7z9880kxFik0fVeGNuPzzXXMBYimCJWiMfkXquirzEJasC9bu8fFDNFccSIzm2j4/fMTUPnrt5Lz6VSJ+cxmDERThGrReIdIXkUV7TtXRt/nFNH/ZdXkmyYansH4lZ8Zl1ZSqV2vZ05ANEWoFk2m/NIlKqqsuQchvzbF8HvnhzNW387VmQqBaIowpWjA/IFoioBoQAaiKQKiARmIpgiIBmQgmiIgGpCBaIqAaEAGoinCVKJpd2wS/2qKEf/cMUA0RZhCND5+tO8sH7Aupm+za/JdIw+/x2+yimmzeD18vlx7PtydAERThErR+JO8WDTYL3mltOxIHs3bk0lzd2dpmdfIw+/xSZGn9mTRiuN5tEOMAX/gmDsQTREqRasS6yZ+ssmSw3n02C/p2iUiY7bWZGwjD7/H0VvE65Y0mrA9jV4+lKtdXW3uQDRFqBSNL5PZmF5I03dmaI9timpCl8kY36N21cJ3KTTxlzTafqZEHxnzBaIpQqVofOEnn0DMF36yaHyJCF+L1ZQSJTL4+5PaEzl35pfqI2O+QDRFqBSN97jxcumNo3nEz+7i56NFX9WIjTk8g/Pzy/jWBUvFNuqJogv6yJgvEE0RKkVjSqouUVJBKb2dnK9dAPr3g7m0uImE3+/igzm0KqVA21bFzpAmjGrRmAtiasspr6SjReX067maHGjkMb5Hfp50rnjvvHf/TjieBtEUYQrRjHCj8T0em1Lq+ojbhgKiKcKUogHzB6IpAqIBGYimCIgGZCCaIiAakIFoioBoQAaiKQKiARmIpgiIBmQgmiIgGpCBaIqAaEAGoikCogEZiKYIiAZkIJoiIBqQgWiKgGhABqIpAqIBGYimCIgGZCCaIiAakIFoioBoQAaiKQKiARmIpgiIBmQgmiIgGpCBaIqAaEAGoikCogEZiKYIiAZkIJoiIBqQgWiKgGhABqIpAqIBGYimCIgGZCCaIiAakIFoioBoQAaiKQKiARmIpgiIBmQgmiIgGpCBaIqAaEAGoikCogEZiKYIiAZkIJoiIBqQgWiKgGhABqIpAqIBGYimCIgGZCCaIiAakIFoioBoQAaiKQKiARmIpgiIBmQgmiIgGpCBaIqAaEAGoikCogEZiKYIiAZkIJoiIBqQgWiKgGhABqIpAqIBGYimiJuJNm/mDCopLtbLABo7XGuuOUSrZ24m2ty46VRUWKiXATR2uNZcc4hWzzhaturlYmhzxNPW6opBdWj9ENm0eICmT55IaampehlAY4drzTXn2juID1u5J7hHnA1tjnHP6O0DaktbJ6cgL0e7A96OdlcMqpNFK22gh/TvS2sSEig7M1MvBWiscI251lxzrr2TxcNX9AT3iJeD3SHuGb19QG0J6dEjoKe/70+d27prg+lmbam9ulpZkKuhjRhYW4oaNIDeS1hJuTk5eklAYyM3N1erMdeaa8615x6Qe4J7pGdnvy3cM3r7gNoSO3my96jIsMRAP59CHlDj4BpjXKcPCwulRQueo+VLl9DyZUuRxhRR00UL5ms1lmtuDPcE9wb3yMih4au5Z/T2AbUlftky69nTY6cFB/jv9uSNXX1QjYNslI9fPcQaHWm8kWst1597gnuDe2TW49NiuWf09gG1JSkp6d7V8fEe/R7p9lYHF6dqTTZpoI2DzTtHrMUGslXz+5BGGK4t1/h6teee4N7gHlm5cqUn94zePuBWGR4eOiKoc6cdPm4u1dqufv4ku2rQkaYTrj2He8HHzbmae4N7RG8XUFc+Sky0HxcdGRfo57tfDGxVzTGTmsGGcE0ncs15JuNeENtm+7k3uEf0dgF1hYjuenPxYpfRkUNm9wnosq2jq7N23MTF0EZbo/MMd73CII0oLJioNdeca889wL3APcG9wT2itwu4XT788EPHYaGhkwP9/TZ08/E+4u/lWeLr4ULtHO20wddihzSq6HXlGnOtueZc+8DOvp9wL3BP6O0B6pPHR4xo8ezcuZ2mTBg/JyZ88Be9uvof7+DiWOhmaFMqPvFKxScf0ojCNeXaco251lxzrj33APeC3hZAFZs2bXKaOWVKSFjfnmN83F2muBosYrXYGJDGFL2uXGOuNdeca6+3AQAAAAAAAAAAAAAAAAAAAAAAAAAAAAAAAAAAAAAAAADAlDRr9v/lMcv594oauQAAAABJRU5ErkJggg==;" parent="1" vertex="1">
                    <mxGeometry x="300.15999999999997" y="130" width="39.68" height="39.86" as="geometry"/>
                </mxCell>
                <mxCell id="14" value="&lt;h5 style=&quot;font-size: 14px; line-height: 19px;&quot;&gt;&lt;font face=&quot;Noto Sans JP&quot;&gt;Web コンテンツ&lt;/font&gt;&lt;/h5&gt;" style="text;html=1;strokeColor=none;fillColor=none;align=center;verticalAlign=middle;whiteSpace=wrap;rounded=0;fontColor=#FFFFFF;" parent="1" vertex="1">
                    <mxGeometry x="210" y="169.86" width="220" height="30" as="geometry"/>
                </mxCell>
                <mxCell id="17" value="" style="group;fillColor=none;" parent="1" vertex="1" connectable="0">
                    <mxGeometry x="300" y="280" width="40" height="40" as="geometry"/>
                </mxCell>
                <mxCell id="15" value="" style="shape=image;verticalLabelPosition=bottom;labelBackgroundColor=default;verticalAlign=top;aspect=fixed;imageAspect=0;image=data:image/png,iVBORw0KGgoAAAANSUhEUgAAANoAAADaCAYAAADAHVzbAAAAAXNSR0IArs4c6QAAAARnQU1BAACxjwv8YQUAAAAJcEhZcwAAFxEAABcRAcom8z8AAGmISURBVHhe7V0FeFRH1y7/V6HQFgtx3bi7uysxAoQIrsHd2RYvUrQUKVJaSksFKtRbaItDkZLiFhyChOA6/3ln76U3m00IZBOSct/nOc/u3r137pkz58ycsTMvyJAhQ4YMGTJkyJAhQ4YMGTJkyJAhQ4YMGTJkyJAhQ4YMGTJkyJAhQ4YMGTJkyJAhQ4aMZwTGWN3t27c3OHEiv/GJEyeI8CklXDvR+NixYw137dpVX6lUvkyP/Z9A/3sSondxou8yZDwfgMIfyc83HTtiRMh45cjM92bN6Ljg3Xc7zp8zs4OUFrw7i1+f886U3OED+iYmhAX5Kho1cjJuVN/JQlfXuULUsKFz/RdecG7bIsXt/OXzrg8fPmwqsCFDxn8TZGAvJYSGusWFBHVJDA+dGebjuTIq0O/X1NioDWlx0RvxqU64nhQZ9nuIl/s3zgqzjxS6Td43b9p4oaV+00UVIbp/kUmThovcrC0Wp8RGLm4eHzc5ISK4a4fsVpHTpk1rLLAmQ8Z/A+T2vdGlbdvIAHeX6e62VgdcFOYPbIz0H5IxMGtDvXLJykCXE92L+x8IhO8VJoWeDv90tVY8CPJyOxMfFvxlRmJ8m06dOhnn5+fDJZUho3aD3LX6PTt2zEmKjFjjYmlxGsZja6TPrMjILHSbMIumjRm1UvxTncTrZCj8fmsyuKchMjL+LltjA+ZkYQq6GujusjMzrdm0qRPHeAqsypBRO/Hjjz/WnzZ+fGh6fOyXvi6OD+1I0WE8MBwof3UT3isasJu1goX5ep1JT4wdFuHnZ0Ts1lFxLUNGLcOYkSPt22dlTg5wdT5ubYiWhQxMamT0nSs/WrYqIqQvNWzxN9xRauHue9hbrw31cs8NDQ19TWBbhozahXYtWyaE+XhvcVaY37No2ogpSPEfGRlX+ia8dTHTaVRlxN1PtfeC+DUyOGeF2VV/N6clbdq0shTYliGj9kCpVNaLDvTvQf2hC3AZeUsmtCy8FRMMAC2LnakRszczZvb41BI5COkhfdMmDZhJ4wbc6ERDE1s1R7rPz8Vp66DePZJOnz5dT2Bfhozagf7du5v4OTuOsTLUu4aBDFHBQWIL4+vsyFJjo1lWeirLbp6mVcrJSOefSD/Y0405mBtz45LywY2NPr0d7Q7mdWg7aNWqFeYC+zJk1A7EhQdYOpoaT1ToN7kuGhpvycjIQJ72NmxI3z7sp+/WsLW//MzW/fqLVun3337ln0h/6cL5rE2rDOZqZfGoNRX5ATmamRyP9POZ1D47w0FgX4aM2gFbvQbmCr2m4xT6TYvFIXYoNfpN+B4TFMA+W/Exqw5cvXKFzZs9i0UH+XMeTMmNBA8guI8WTZscN2n4xtv6r70mG5qM2gWzBq+YmzdtUsrQTJs0ZDZG+iwpKpx99cXngilULW7euMFWfrycNU+M43wYN3qjhKEpdHWOm+k0ftu0cWPZ0GTULui98oK5aaMGpVs0MjRMWieEh1Zbi3bh/Hk2d9YMFhMcWKJFw3fiDxPYxyOD/GTXUUbtQ0qor7mTuek4SwPd4hJ9NOofYfQv0N2FLVkwXzCFqsWJggI2euhg6hfa8v6hueC+cn7ot4+T3fG8zu0nffrhh7Khyahd2Llzp3lKbPQ4GyODYukkNZTb4I363H2cMflt9vDhQ8Ecqg4Fx4+zkYMGMHdb69KGBqN3czk+YnD/SZv/+EM2NBlPDlLiV7p0adHAx8rqDWWvXm+Qzr0o/FXloHeZ53VoN87exKhYHOUTSbd+Xd5PenvsmGoxtHJbNOIt2MOt4M3hw6bs2rDBSWBfhozyMV+prNe9XTuTAd27e6fGRqZ4OFhl2xobZPm5OWS1TIxL6NOpk1tmZrJhv379XhUeqRKQAVkM7Jk3wd60tKHpvfYqHxSZMn5cjTA0f1eno4P79h67/tdfbQX2qwTESp05c+a8lhoZ2cRFoaerW7++notCods6KUkHOxzof3lzam1A/saNjTvktE5Njo6YG+Hr9bubtcU26iPtIoXaSa7aThdL8y1+Lo6/RAcHzspMS0iMjnapLzyqdZDSKAb17lmmoWGY/1kbGicyNlcriz2ZyUk93n//fUOBfa2D2KizYsUKm7xO7VtG+vkMszU2nGjU+I3JjubmE2NCgkZ3yclprxw+3A33CY/IqImYoBxq1SE7s1dEgO+3/i6OV73tbZi9iSFXJAxGgLBNxEVhxrwc7K4Ee7mvigj06Tmsf387IQmtghRGJzs9tT8Z+BVpH62mGRrfSmOou9XdxrJVdlzcGwL7WkXXru2sU6OiWscEB04L8/X60cPe+oCVod5pU51G52yMDc94O9ofCfP2+jPMx2tukLtLbpvM5o7E9kvC4zJqAqhAUFOadMxuPSomOOCAo4XZXa5AwqZJfBdH/bjB0TWQs4XpnUAP15OtmydPWLHiAxshOa2CDL0ltaaFNsSLqNigmmJoVgYqQ1Po62wy122Y4mlgoNW1jitXrvzf9EmT7NPiY9/0dXLcaWNscJ1kf5fKBhtRBR5g6FRWhnr3bY31b7hYWuyNDwuZMmPKW97bt2+Xja2mYNmCBRYdc7NHRwf673W1VvCCE1esow8iFqhIWDFvoduYQfldrS1YgLvTkZgQ3xFWZIVCklqDTr2Xk4iPC9joKeWhphmahV6TjaY6ryeZvfBCXYF1raBfz56u2RnpM4M8XA/ZmRhx70JBshfLBWWFT95XJL6s9HWYLXkhXva2BVGBvrOiQtzthaRkPEsohw5VdM7JGhYd5H8IRoa+EApMVGheiPQb19WNjv8msjM1pD6K+d/BPu5d+3bubCAkXWk8fHjwFQ87m070rkvihLVIGHXEavrqGnXkw/uDBzLip5ShQdmtDHX/crYyy0ry9NRaixbq42wcHxr6ZqiP53m466j8NFV8JYj/r8NdfkcL05P2ZkZvmurqKoQkZTwLrBLdxaCAg84Ks4eWeirjkRYmvkOxuHJpMkLhfirQ+0GertuyUpO7HTlypIHwiqcG6fZLysH9fCL9vedRH+16TeijjRoySPNgCJGdieFRf1fHCckREVqZR0uLjTUIdHPuQ5XfX9gCBNdQWi4gXgEKJL0OQsVEFQC5lzqHya0dZWnYyERIWkZ1YuG0aVad2uSMjAkM2Ist+Sgc6V4r1NIoQCw1otqa7/Uy02nIDBu8xgtcdFlAuA+K4GJl8SAmyH9jz84du/7yyyY94VVPDNLrlye8Ncq7dXryFDLeQ2Ro90Vl4oZN3zGHRn0RNnfmDJUlVDFOnTzJJrw5mvm7OvP8QhZi/sETGcN1bwe7XQmhwSNnTB7vQsb/ipCdJ8aGDRvMenXq1MvP2WEzVX63NXkT4AEtuuEb9bks8FtaJrxiEp5R6DXdq9DVGWlp3NRKeIWM6oByyBDTTtmth8cEBx50tVJodEnQWsDIsPGxRVI865fXnbVKSWLOlubMhApWunodxA2B0vB2sGXx4aGb22S2yPH09Kxwy3b27Nn6A3v1smyVkhJA78lKjAiZFezlftDdzoobsdTQ8G5cS4wIY59/skIwharF5UuX2IdLFrPkqEguL+NGrz/KO3hCH9JFYU6G6Ph3WlzUtLwObXOTIiO9MxITjcjoKjzfuGjRoqYDenbPS4+N2UoV1z31ssF3lA0+Xags/FwcmZuNJecJ5SLeV4r0mh600NUZrjBoZCq8SkZVQjW62Gp0dGDAATIahF17pMQi4bdRw9f5UH5GQhz79KNl7PChQ+yXH35gXdvkwk1iBq/XK6UAICick8L8hq+zw7cBXu7JpKOPndP59NOFjYcPHhCfnZH6TqiXx28uCotD9qbGhdSpv29jrF+q9TSkd6MV7pfXjW3esF5lCVWMu3fvsh3btrE+3brwfCL/Ik8g8IglYTbGBvfIDb/g5WB31MvB9psof+8h/fPyIqmV0hWyWyYWzVzUtHfXTh2pAlznbGF2h49mSmQMQv7RgnmRC9shK5ONGTmM5XVsT31Ha966qZclSBgxfkAt2wFyI0fLbmQVY+Sg3tYdc7NHRAf574eiohDV3UXUlsZkZOjkt0hKYB9/sJSvXAfu3L7Dfvj2G9alTQ5zNDfl6w1xv7ohgMhIi6hF+rR/77xIerTUEPOpQ4dMBvfvHR0bHNg1zNdzSpiP15pAd5dT4MvWyIB4Uw3AqCsO3tfoxTp8x/Ny4q3wgoq36kDx1avsvVkzuVIbkQutzhvkiWswEAdVKIT7zgrzfB8nx6/iQoNnZFL/tV1Oq4DVq1e/LojhERAbMjU+JglzZNSS3TRv2qh03ps05CEVHC1MWfcO7diPa75l/+z5m296HdK3N/O0s2H61HeFIUrLhE/JcILhNt1PxjZSoaNjLbxahjZh0KiRaVxYEBlZAB9dLMtdFFsyuIsfLl5MinxBUDMViq8WUQGvYW1btmAW9DwKVWqsIBgJ0vZ2tCtMi4/5OLd5alJWerpZ5+xsg4Rwf7PWGan+3drmDkhPiP0s0MPlELk+9+Giqp4tyZOU0CfB+3Bvv+5d2b69/whcVR82/vkn60EtCJRd77W6fBlYeTzz/4iodWMxIQFHIgN834/082vTpnWGT0pMjEnfvp0NOuXkWMRFhDQjN3kJucRFQgtUgmB0MG70ldtTS7bmq9Xs9p3bnCdUgFs3bmRD+/Zh7jZWVIavcVmp8yWmS9cPW+rrjJDdSC3DXF/fjDrDo+3Njfc5WZg+tDH6t88jEloPFKQ1uT/NE2LZ8qWljUwE+itL31/ImkWFM0uqOWGcJQtVcCPJYN2sLS8He7j+Sfe+mxwXNTrM22O2h63VL2Tsh50tzYoczEy4K8rdJOJJXTlAuAZ+MRCDe3t26sg2/Pk7u31bpWjViWvFxeyXH38gGcUxvfqq1gO8qfPNfxOJn6gcXCzN6NO40MHcdK+vk8OP0QF+U3JbNB/VKjlxoZ+r8wYrQ91CTRUg0odBw1AQv+TLzz5lRUVXBI5UuHXrFtuyYQMZW28yNkvirW6pChAET4U+H1LLtg9uJHRDUBMZlQFcBAvUXnAZqADVR7DgYqATrf/6q8zB3IS1a92SrfhwGTtz+rRQhJpx7MgRtuDd2Sw+LJi7NDA2FKzUZRELGnE2qNN+keigu61lIW+9iAf8LyqpunKB8B8UGUrTtN4rvF/Wq3NH9vtvv/E+07PC9WvF7PMVH7Oc5ul8cAjuGlo3Ta2INC9wB1GZ8H4stYie9janQrzcD4R4ul+FjB4ZptpzkIFp44YsKTKMLVk4/5Errw60bOizDunTi1FlRmVaj5eLtExA3I0kg4NOcN2Q3chKoY6RUWNjDOtS4R0SBSwtSHxHTYk+GdzJru3asDVfry5VW5aFY0ePsJlTJ7PYEGHXMaUFxRDTFwkFjVFCfHIS/1NTKhCeRzpQWrH/R30WFuLlQf2QXmzT+j9Joaq/JVPHvbt3eN8IgyNkLLySAv8YEYVhYPhfXRZS2YuygFxE2UjvBeF+k8aq/ha5/GzuzOns3LmzAgeacZu3bGRs1LJhNBJeiib3VuJGHoKOWBkZGdPj8mLkJ4Wpnp4FXAMS5D4uWA0FCUXWrf8K1X7W3L9H1KeKGhnw4OEDVnDsGJv9zhQeKAdpQsnUCxW/RbeQ/6f2v/Q+8ITRM+4mUsuXFBnOlEMHs9Wff8YO7NvLXaSagps3b7A9u3ex5R8sYf175rGoIH+eD7TA6CdpcgNFEmUBYwSp34drmBQ3JYNFQKAFc+ewUydPCG8uH7du3eQt29B+fXjZoowhV2n6IFEnyND22RgbKjOaNbMQ1EdGRWD8xhtWlgY6wy31mh541HpICAKGS4FRQ3LluKuBzvTTumOHDu5n0ydP4q0OVmzASDQVrDpBuaBMqHWbvPIif9bJwoxFB/qxNi2as9FDBlNfcSnL372bPSSjrqlAv23Lpo1s8YL5bPjA/jweZLifN++joh8Hw4PXoKnPpIkgOz6i26QRiyPXHJPyFTUyEXfu3KYyRZ+tDy9jpKfJjQShErQzNT6YFh87XKlUypPaj8PatWtf9HW1NadONVoyuIsP1Q2NKzcVOFoNdJrhYmyhAoHL8bSAERzYt4+NGjyI+bu5cFcILhRcFigN3leC6JpqqJpcGipkKCQGOfzdnFnn3Gw2f84stuH338lNOsdbsAcPaq6Ribh//z61cDf5dMPm9evZzCmTWVbzVL6SxMnclMtEdIuRd8hAXSb4z5RcRcjOxsiAKhz/CrmLZQFlupUqAJQxyhpljndpaj0dzIwfUot8qH1261FYmkePy25kWRg1bGBgVJDvHGdLs4NYtwghSg0NtRkKEwty3amzjBEq9HngalQWULT8v//mtW/L5CRuOE1ffUXVwgm1qUiY7EUtb9igPgYEWJuWGWzyuDHs808/4S0Dau87d+4IKdc+3Lt3jx0/epSt/+N39sUnn7Bxo0ayjKR4PnCCvGNgh7cw1JKrZPIal1GTui/xlh2DRZDJB+8vZCeOHxdSfTrA2FDGfDSSyhxlDx2QtmwwPOzEcLNRwE3dS5XdqHkzZ8rnCKiD5FlXOWJEUEazhEWB7i7FzgozjSNYcF/g1kHgg/ugJduo9YGFc2fP8GVRIwYO4GG648NC+GABIlaBAohCvD14TEasbJigHMW+Xb2anTl9Skjhv4cjhw6ylcs/4q5wLrnECJMX5uvFgjzduDyCPFxZpL8v749mpaewEYMGkExWscuXLgopVA4oY5Q1yhxlDwOHLkh1A60aRqQxshsbFHAQS/RGjBgg99lEkBz/N2f6FN+0hNilfm5OxY7mJqX8cNFdRG2Kkaih/fqq3MUqGr27fv06n4PbtWMH+5QUbPrbE9n4N0fzRbnjyLBmTZ3Cvv7yC7Y3P59duniRByf9LwOu9fVr19h5coV37fiLrf5sJXt3+jvs7bFvcXlMGvMmm0fu8nfffE1ewW52/vw5rcsEZY0yR9ljUhu6IHUj8an6zk/HeYAdHVQRKmU3UkBGsxirVqlJUwM9XM/DyNCSoXYSjQxGh6FyuGoQMPz1zRsq1yd7EsCQjhw6xFdx7Cfa988/fFoAy5meV1wtKuKjtQf37+PyQP/25IkCdqOKKxyUOcpeXEECnYBuSCtmGB8+0bJFBwXsww6P6ZPGPL+bR0ludc6e3VU/PSE2N8DNeR+MTNPKCgy3w1XAyNPgPr2qxF2UUXuAsscACXQBOsHdSLUpGXyHG4m51ejggAOdcrJ6KPv0aahUKv9PUL/nBySzl6ij7ZEeH/Oug5nRTQx6qBsZaiesWkDthVoMo2HPYtmSjJoF6AB0QWzZoCNiSyYSvCKcsIq4MFGBfp91bpMdM23atCoNL1gjgdh+Iwf3y4wN9v+Nmv6HqIFEIYnuIgY+vHC0EdVemMCsLndRRs2Hyo1ULdfyFLbYlOVGksd0KjUuenyMn19jQf2eH3SMiWmcGBU2wMfZId+aDA0r5kUBoTaCkDDCxCejyVWQWzIZ6oBOQDcG9urBN5HyeU2JV6Rq1fR4ZR3m4/l113atn781kf4uLrr+bi7jXCwVJ3ktJAgIwkHNhDmbDlmt2I/ffSv3yWSUCSwIwG4ErHNFn0zaX8MnuiRYUODr5LBp5ttvh9Mj1RYSvkagWUSEXmxw0FQfR4fzqHUwECIaGoSFGqpb+7Zs25bNKonKkFEGrl27xr7/9huWEB7CmtZ7uUR/DcaGVSs+Tg47Plm2rMWThGX4T2BAt2662c3TJoT5ep/CFnqxj8YF0xSr3puyyAA/vpzpQjXuQpZR+4AoYrt37GDN42NZ41f+V2Kdqmho/i5OO1d+sjyTbn9NUMHnAxOHDm3UpkWLfqHeXn9Ti/YQLVkJ4ZDhiavf35s1g50+9d9deSGjcig4dpTNnTGdr+DBvsQSI5CkS6jEqUX766PFi9Ppdq0GiK3xUCqVdbu2bRsW7Om20s7YsMRokcrYVCHR0F/DKZXz58zm6++eBzygGvravQfs/K177MzNu+zczXvlEu7BvXjm3oOqjxFZU4DdGliJMm3ieBZLOoINqWjNUFGLeoQ+Gna/e9har5v81lv+9Nhzd1pNne0//9wgNiRgsKetdZGDqTHvn2EJjdTYsBIcRoiV4NPfnsQOHzzIHty/r5J0LQdM4i4Zxq37D9mN+w/Y5bv32Ykbd9m+q7fYnxeusVUnrrKVx6+wzwuKyiXcg3vXX7jO9ly5xQ4V32YXbt9jNynN25T+PTLc/5r5YeHz9q1b2LAB/ViAmwvXlxItGdcfHW5k1N+/6+vitBQxTgTde/7QtV276MTI8F/crBU3sf1COswPEkchLZo24ZGjsLB1119/CeKuvYARHLt+h20g41h1oogtPXKJzTlwkU3de4GNzz/HRu46w/pvP836bDvF+tJneYR7cO/IXWfZ2D3n2KT882zW/kK27Ohl9t3pYrbl4g3+Lrzzv4L1f6xj/Xt0J5fQni8wxgAadEV9Hg0DbaHeHgfbtGg+sEuLFpWOQF1rsWDBAuMenTt2ign2/4OMDaeMPBqBFEns0GJtm5uVgo0cNJDt/Gs71WrPLu7GkwIe3SVqZY5cu8P+unST/XCmmC0m4xr79znWY+splrW+gKX9foylrjtKdIyl0/fmT0h4Bs+Kz+duKGD9/zrNJpLh4V14J94NHsBLbfQy+YbQzZt4TExsskW8GHQxpO6iqDMYZKPWrDg5JnLe9MmT/deuXft89c+kINn9b+7cubpD+/TpnRoTvdXezPiOygUoLTi0bKaNGjB3a0s2rH8/tnvXTvbgQc12IxFWH32nQ9dus29PXWXTqMWC8nfdfJK133iCG0Pmn8dZxh8ljQa/WzwhqaeBa60pbbwD78I78W7wAF7AE3gDj7UB2EC7eeN6HucES68ebb7VYGQgJ4X5rVAvj19aJsU1g5FREvIq/u9XfW/eMSenvZeD7WrqwF6BG6DesoHQZ9N/rR4Ptjmsf1+2Y/tWVSnUQJy7dY/6TTfYR+TCwSUctOM0a0NKn0ItTtJvR1ny2qO85YFBtPrjODc4bVJLShPGh3fgXXgn3g0ewAt4Am/gEbzWZNy4fp3HguyUm8WDHWHDKbwcdSOD3ljoNsbG3UIfR7uVSRGhqbmpqU0ENZMBtMjLey3Cz6uZj6PDp84K84uY0YfwpMLEdwgTa9sQd3/EwP7cjXyW4dukuH3/ITt78x7bffkmH6hQ7j7HWxQoO5Qeyt+KjEAkTQYiEv7H/RWhiqQlEu4XDRC8gUfwCp7BO/JQk4C9bWt/+omHx+O7OcjIoAOiToh6gYoZAVo97G0u+Ls4fhTm4RHLXnhBbsU0oUVo6GtDB/aNaZkUv9Tbwa4IIQVEQUoFCzcS5EZu5MhBA9ihAweEYnl2uEOdnl2krIsPX2LDd53hrloOKTLcOPS/REMr1xAkxvO0hDTE9DS9C/eAF/AE3sAjeAXP4H0n9eOQl5qCHdu38aCzPIz76/V4uUt1AcQ9IL0mLNDdtbBtZuby3h06RCYlae+st/8ksEzmnYkTo1omJX4Y6OZc6IRd1yRMTcbW5JWXWIS/D/tw8aKnDgKjDWBU7/vTxWzKP+dZZ1JaKDHcNShyWQoPwn9wHdG6YCCkGT2TQC4ePlvSf3DzOm46wamDGonXcQ/ulT6LtB65pcK7NBH+A4/gFTyD98mUB+QFeXqWwIqPi4WFbNF7c7FWkW+HURmUmodDfXoMfPg42Z9u1Sxp0ZypU3FewvM78PEkgLHNnfVOREp0xCJXS8VZWyP9B+qT2hA6XAknhRnr2jaXbdpQPSezSFF87wHLL7rJllBL0GvrKa68LajFAIkti7pyo0WBcsMQ8IlrbclYOm8+wfK2nuTD9UN2nOFD9TP2FbL3DlzkNFeNxOu4B/fiGTyLNJAW0kTa0nfh3VJeQOARvIp84xrygjwhb8jjswAWk2/843ce3RmeDVozafnzyWhDPWZtoHeXPJujGUkJc8cqR4TQo7K7+CQggdVLi4lxdbNSjHZRmB9yJP8bxiat0URjQ0zGVZ+t5AVUXSi8dY8PmY/bc5aP6kGJy2tFuEITiS0YKGv9cW4caEU+PHqZpwfX7cDV2+zotTt8AvvUYwj34F48g2eRBtJCmkgb7xDfJ/JWFn8ib8gL8oS8Ib0Lz2Cw5OrVIt6aIcoxyhxRj8Vyx29EvsIQP9YxpsdGDhvSr5/riRMbn7/NndqCh5WVZUxw4HgPe+v96PCqd4QRgsyB/Pd5s2dVedwKAMucoNiYaB668wzv7ySR6yW2BpoUWHTPMMcFt284PTd93wX2gTCpvJ0MpOD6XXbtbuVbD6SBtJAm0sY78C68E+8GD49za5EX5Al5Qx6/pLwiz9W5xAsx+hGMx9pIjy+tkpY7DM3e1PCmn7NjfsukhJELZk2RI15VFiTzOu+9955DuJ/Pu+RC8APupIaGAxpsjA14pKqqDvuGETksc1pEblVvai1ENxCf6kqLa1BUtBJoVdBC9Nl2ms3cX8h+O3uNHSdjuIH1idQXqQr9RZpIG+/Au/BOvLvf9tOcl9bEE3jTNEiDvEjzBlcSeUbeq2tUEgeVICAtYkWqD4DA0HCYfHJMxISRg/s6Cqoio7IguddJT4zvGebtecXVyrxEp1j/dTI06gyPGjKYxyBEJ7oqgNp804UbfMCj25aTpKAql6wlKSomhtUVFQqMeSv8HkatAp+zOn+dr8y4erf6J9rxTrx768Ub7ONjV3hLBd7AI3hVryiQJ+QNeURekWfkHTKojpYNOzYQO7Phi3VKjzRS2TtZmu3p3rEdVuQ/f0F3qhJZzZt3iwrwu4KVIVg98q+hvcp30SJu/P69e6skBDdaBSgoljOhJRCVT6qYImH0DtRmwwk2aMcZNudAIfuZWpPT1JeqKThLfa6fzxZz3sAjeBX51pQnsVJB3iEDyAIyqUqgReuY3Zo1eun/NBqai5XFrreGD06kW+XBD22hqKioUXpc3BgPW+s79iZGj4wMxF1H3qIN4jEYtW1oqL23FN5g4/aoJp8zflf1YdRbANXInWp0D8Puk/IvsF/JwM7dustX0VePw1VxgCfwBh7BK3gG73zARK0SQV6RZ+QdMoAsIJOqbNnKdR3Jo3G1URzp061z7wsXLhgIaiKjMkCYsGF9+wZH+vmsoL7YQ6nAQdi+jn7blAnj2JUrl7XqOqI/sqnwOimiyshQ46v3Z0RFRI2PgYY+20+Ra3aZ/X35Fit6Bi7ikwI8glfwDN7TKA/Ii3pFAkLeIQPIYiLJZNOF61XWZzt75gzr1aUTj+2vvqYRhuakML+cFh+zdNjAvoGCqsioDHJzc5u0Sk4a5O/qvBchDtRHn+A6ImLWB+8voOLRXqFjr1h+0S3eL8kiJYP7VGrQgNfyKpcrd8NxNnznWfbVySJ29ubTuYlYSnbp0iV2/NgxHnJ8986dfN/V+t/X8fPf/lj7Gyd8xzX8h3twL57Bs0+7HA08g/cRu87yvCBPyJt66wYZiG4zZAMZQVbaBqJEI9y4t4MdL2esbZQamr2p8b0Ad5d/4iOCO9HtsvtYWTSLibGKDvJf7u1oe0dqaBA2hn2tDfVZ88Q49tP3a1QlpCVg4AAjbd02n2TpVMurD9+L7hQUD8uYxpM7tZncKb4iXkijIkALfP/+fb4KYtuWLfyQDbTO2G/VpW0uy0xNZtQ3ZcEebizUx5MTvuMa/sM9uBfP4FmkgbSQ5pO07rgTvMMlRF6QJ+RNk5uMa2j5MEACGUFW2gbWOOKMg+zmabxrgKjE0grWjvrlrlaKu2HentMXLpyhJ6iLjKcBVohkpabGeznYbHOywAEYKiFD2BgQweJiP1dnNl45iseC1xYQGgDzZL22nSKlKt1vgeKp+jPHWd6WU2zO/kI+QIDd0k8CHGuEVemIeTF66GAeNg1HJOG0FhzogUWyyKdO3ZdYg/+9wAcGQPiOa/gP9+BePINnkQbSQppI+0mPToIriLwgT8gb8oi8So2Nt+SCXCAjyAoy02a7hooC4SvGjhrJV4bovPrSI0MDWRPhepi3x0+jhg+OX/3++6+rtEbGE2P21Kk2zWNjxzlamJ5GCyYVNFozrH9LT4hlP//wPQ87pg1gwvfHM8V8SB5rCNFfERVMNDIon6hkS49cZvuLbrP7FWw9sOXj+LGj7E9yAWdMfptlpjRT7a+i/GAjI7YC4TuMCIQWnE9nCJ/q38X78AyeVW2GbMTTRNp4B96Fd+LdFQHygjwhb8gjhvk1tWyQDWQEWUFmxVruk96/d4998uEyfiAiugjSHfiiPgR7eRxv3zpzytgRI57fUAWVReuUlNSIAJ+1DmbGt6FMj4RMrRqUCZ99u3dhJwoKtDIIAqcv/8otPqqGGlucsJUql6omp5Zs60keguAYuU0V7aNcvnyZ/fbTj0w5dAhLiY1iXg62/OA+dPb5gYfkHnFDod+ikalXMFISDY4bGj2DZ5EG0kKaSBvvwLvwTrwbPFQEyBPyhjz2oLwiz8i7VBaQDWSE65AZJrSfzHF+PLCGtX3rVjjVk5c58ivmHeXv42R/NzY08LfmcXHugtrIeBKQjF+MCvQd6uNsfwlCFgUMglLhM9Tbk707fVqFa+rH4eSNu3yrSLuNJzQuq4LLhEGCnPUF3LU6WFyxKMo4JxpHDr07fTqfhPV2tOc1NIauxXgXYt60RUgTaeMdeBfeiXeDB/ACnioC5PHdA4U8z8i7+uAIZARZQWbor0GG2sSZU6fYezNn8j4pKhFUIMif2IVwsjBlnvbWR5Miw7N+/vnn5zcuyNOA5Ftn3szJlmE+noudFeY8lJgoWBBcRnSQ8zq2Z3+sW1vpsOGog9E3+f70Vb7cCMqD2lrqKoluJBRu/J7zfODjce4iWlkMTHz/zdesd9cuzM/Z8ZGr96jFkuQLhN9ibc1DpeN3GVTi/zLSwjuk7wQP4AU8gbfHeQLIIwL8IM/Iu+guinKBjMRBE8gOMoQstdWu3b1zhx/X1bZVC2qpsR/t38XFnCiP9mZGlxPCw2aPGz7cTVAhGRXBqiVLGg7q2yuXDG0jDIorlER5mtR9kddkOHMaB+NV1m28SYqx6zKG8i9w5dHcLzvGUuk6FueKo4uPA/pFSxbMYznN05iLpQV37eDWiW5vCYWR5I//J/4vfi+LhHsePSdJSyRcxzvxbvAAXsATeAOPj8N1yivyjLxDBnxwSCIfkCgzyBCyhEy1hcLCC/zIXgyGYfJamk9UHrYmhncjfH025qSlZQoqJKMieHvcOI/m8fHLfJwcCiFU0bUSv5vqNORnKWMQRBvAiBlcRmx8xByRel9EnFPChO43p4oqNLq4e9cONmXCWJYUGcZ5x34qKLuoIDw/+v+2RtjAiP1VHrZWzMfZ4Zanvc0xTzvr7b7ODuuCPd2+D/f1Wk0VzxcgfMc1/Id7cC+ewbNIA2mJLRzeIX0neAAv+A7ewCN4fRyQZ+QdMhDnDqUygsywcgQyhCwhU23h7r27bNmi93kwXWyVwqCPmB/kEZWxm7XlpbiQoNkrli79bx8UT/Ko0yUpqV5kpHeT2OBgA3dbW0OTJk0eka2JiWGAu7thZnKyYY8OHQx79Ohh2Dk72yAuLqipg4NxY2dT00bednZNxowZ6dgqpdkQXyfH/eibicLEJ2ov9DtIwdiowYPYvn/yVSVRCWAcY/eVm3yiFsqj7jLie9q6o6wj9UGWH7vMzt4qvw+CCeO9+XvYyMEDedxBS72mvF+hyU0UNy+Sojy0MtS94WBucjHcz+tA88S4b9MS4t7OSk3uNqBXXsbHixdHbNu0yXfv7t0eIHzHNfyHe3AvnsGzSANpIU2kLZWf+J1XVujrEG/gEbyC58dNdiPvkAFkkfb70VJyguwgQ8gSMtXWPDaW1e3cvp1HP3O1suBdB/U84dPfzXln13Y5A5XDBjiFhnrqQKccjI0bQ8c6d842GEQ616FDpmFyVJShVD/xPSLCVy8xKKhR29DQmrs7m2RRZynVJFRDtgrxdp0S4u3xubut1SoLPZ1VVLtyon7WqgA351VpsdGr2mW2WNUxO2tV69Rmn0QH+s11UpiOtzE2VHra2UwO9vJc6efstNfBxPg2FFEUJghuA4ScHB3JPv/kE3algiNo5QEBaRCcpuuWkyyZDKqE8qB1I8VBuAAEJsVSpcfpDoIFYd0lhqQRSAYBPlFBSPOhUgzVpCtOzvFzcTocFej3CXXoR2anJWd0zskJ6NOtg+1kpVL/8uXLDShZhEt7FM4a33EN/+Ee3Itn8CzSQFpIE2nbGhnw90kVE8QrLeINPIJX8AzeywPyDhlAFm03Yt1n6flFyBCyhEwhW20B0zcY6sdkvW69Vx55OaI88dvO1PCmr5P9P5EBPp8GerhOo7y/aWtiNCbS329uTvP0zzrnZq/Kap66KjYkcJWbtYLrpblOI/6dvISlYX5eo6MCfBOUAwfqC6KuUajXIikuqFl05DgqsJ/IwC75OtvzmgdrEGEsIDsTA+btYMsoI2QoEYwMjsWGBMBNum1nYnjWylCvwMnC7CL6D45miBNScjc1vsPQ4Pr07NyRH1Re2fDg6NptuHCDR4JCR7+5Wt8D7lAKKc6gv87wxbdFd8p/38mCAu6K+TjaM6MGr2vsi/GWjQg7DqhiORnq7fUjVRwjB/fvHb1z404jQaZPDaSBtJAm0vZ1dDiJ/qzq3aUNHjyCV/AM3k8UHBNyoxmQAWQxeMcZLhupmw3ZQYaQJWQK2Vay+1wC2zZvYtnpqY9aZPUKjLvfpHNYkkd0xdpA74SNof4p6oLcSggLYenxMSwxPISFeLrxCg6T3ujf4rs3tewedtYFpKNfhPn5DG8WF+enVCprRoAfPz+/Vy31moQRo4vJR77oaG5yB2cH2xrrc5cInVfR0OBbw5e2NzHkcyIgzPPgmhgPBM+oniu5uROETjwUNNzPhy14dw67roUJakxOf0SuEFqsUqsfiEQlwnaSczfvltuaYQQPgwvo90CB0VKoVxQg5I2M7I6LtSI/PiT4nUG9e0dOnTpVZ+XKlS8LYq00kBbSRNotmyW+E+Thkm9vZnJHyoeUL5FX8L54/ns8L2UBMoAsMOQP2UBG6nKDLCFTyFYbu8ZFnCg4zmZMeZtFkA7A0PiqfrW84FPUI/E61zvSNdJP0jsj7klwPaP/QPgu6qGDqdFt0uVCPzfXRbGhgWH9+vV7tuERKN9127VqFeCoMFlENcc5nApjY6QK6c1rbYkARMJ11EJilFnUpriG/5DhskbPcI9uvZeZs8KMhwTP371bJflKABOyOBBi6t7zfMQMa/fUlQU7o7Hq4dezxeVuCYEL+/033/B1eeAXnXX12ha/0aJ42FsXxwT5fxfu79MhKyPDmR7XmoGpA2n369HDOTUupkNsaNB3VGMXgwdNvIkDDORa8byU55ZDFpAJZAMZqVdS4g4AyBbzcNpadHzr1k22a8dfbEDP7uQhGfEKQlMgVXEgSPwN/YGuiTqH/Er/x3eus0QwOBy6QnTO08FmUfd27QLo1c+u3zZm5Ej79PjYKa5W5udEAxEZ1xbBFcCQtP7r9fhwfl6HduxPzJvdqfwi1svkAq05fZVH7VWNmJU0tGZrj7H2mwr49hFs2ixvZgjzPH26duHD5hjRA99iHngh0m8UoKe9TXGz6IivBvbo0Zweq7bCw7vwTnLvvwIP4AU8lVBG+g3ecawx8oI8lQXIAjKBbCAjyEpqaJAlZArZfnPqKpe1toCy/2bVl7xSc6AWCjxr6gdXhiAXGJ2Lldk56Dh0XRBl9SMlJjIr1MczH62Meg0CUrVeVHugBhFqESmhYDVdU7+OmhaLR3t06sA2/PE7u3nzpiDyygErzhGHHi6OOEEtNTTsLcNpLdsulj8xffnSJTZ3+nTm6+zIR0RRY6q7M8iTp4PtVeqQfztqyJDmy5Ytqy+IsdqAd75F7wYP4AU8lSgz+g7eVaO6jjxPyFtZgEwgG8gIspIamjiBDdki9Li2V/dfOH+Orfx4OcvJSEfsEK4nOOxC1BlNuiVSCR0T9FL0qkqUGV2DbkPHoeuCGKsXlNeGUUF+Y12szO/C3+U1gFBo8HPBJGoacbU5p5f/jzWp+xJr+urLfLNm03qvCJ9SeoWPKOH+hi/V4b4zBk6wTg/7r3CaiLaw/fJNftwRYmaUUJI/sfKBWrONJ/jxRwjnVhZu3LjO1v78E+vQOpMKTdX6SgtMHHzwtLMpQkumHDY4nRUVNRLEWO3Au8EDeAFPUh5FQh6QF+QJeUMeywJkAxnxcHuC3EQ5QqaQLYIBQdbaxvlzZ/nZ1aOHDmKJEWGkd035cjOuX490rDRBv6BnuBd61vjl/zEDyjN0VhwbEPWZjwqTjkPXixir9nKrs2zZQit/N+f3eOEIBiYSaggYSJCHK0uNi2ZpcTGcUmKiWHxYMF+zFunvyyMM41NKuBbu580/m0VF8NHF5UsXs6OHD6uGCLUEnBX2w5mrrMvmk3ydntTQMGqG/gVWQSByVFE5nXkc66ocNoSP2CHfvDUT5ICCQuE7mhnfRv+ob17XjE8//fSZxx0ED+AFPIE36dYjkNiHQZ6QN+SxLEA2kBFkBZlBdlJDg2wRzBWyrorz2e4/uM8O7NvLliyYz3p07MANjuuQr3cp3RIJAym4BwseVHoZyQLcnLnO4hw+UQ6cBLlA15cvXmxN4qvWDab/F+rv5WRnarSIK5OEMfxGB9XT1pq9PW4M2/P3LvbPnj2ccIDgzz98xz5b8TH75MMP2Yply/inlHDtoyWL2VdffsH+2rqVHTl8iLsv2liZLwL98uPXb7PFRy7ymjhZrX/BB0aI3tl3gYdpK68fj/4iVsZjbg8KKiosPkHoVwa4O+enxEV0nD9pUo1Z8ApewBN4A48ivyLvcKmQJ+QNeSwLKlne5bKCzEBSQ4Ns220s4LKGzLU0JlICOLoLo6SIF/PH2rXs0+UfsY+WLimlWyIt/2Ap17N1v/zM9XLHtq1szMjhfEWOccM3HskBBN3Gb+h6pJ+fM4muWiNu/U+3fn0XamoXEzMPMW/xqIDg9xJhzgJGpQ4YTHHxVVZ05Qof1cKnlHANW9hvV3KRcHnAEkWctDn277MsF3NnpByioeETtXLWnwU88CiOvC0L4lAztqHADVH38zFP5u1oX5jRLPGdvt3bKwTZ1RiAJ/AGHsWTe0RCXpAn5A15LG/zKGQEWUFm0nlIfKLSyll/nI3dc5ZtLLzOZV/VwNrXSxcvldItkVBxq4+orvn6KxYfGsLQokF/RWMTdPshdN2oXj1XElu1noH9PwtdXWdiYBGYEA0NhYNaHfMVGBFCbIuaiDv3H7LVJ4v4HisoBBbIirUwOvD4RKBTRPktbxDkOyqczJRknl8MIIiFg0+4Ia6W5nfDvL1+HNS/fyRVMK8IsqsxAE/gLczX60dXKwvVaauSPCBPyBvy+O1Xq4VclwZkBFlBZlIZqr6rDC9vy0m+Cxuyr4lADBboLPILHRYrTdHQiBbZ6Oq6kNhqjqFhIjq3RfMaa2i3xBqYWjO+hEhQCrEGxuEQk/+5wI+hLU8t5s2a+ejkSbFgQMJczH1/V8cDydHhIzFxLMitxgG8pUZHjvR3czpAPD8A72I+eHlS3pBH7JIoC5ARZAWZYVkWZCjKFASPAQa38NDFGnuONnQVOgvdrTWGJrZo6379RchGzcKF2/f4SBnvvBOJCgHlwDB1500n+CERZY02opG7SO6tcuhgUsRGzLCB2kgjuR6W+rq3IwN9PxvSt2cEyasmR2iqk9elfVCQl/ty6vjfUvH+b16QN+Rx5OBBPM9lNfCQFWTWZbMqtr/U0CBnHCWFqZTzJPuaCOhqrWvRarKhQU+wUgHRdqEQ6oYGhYCbU178C0yYItJUt3ZtuHuFuIPIv0iQh725yaXE6MhRmzdvNhZkVmOxcOGnjQM93AZQuRXihBZpXpA35BGRtpDnshYKQFaQGdxxyFC9RcMwP2QO2ZfnJTwryIamZaA/gbgWY/8+V8rQMMma8NsRftTRzss3y+yfXbl8iYd1Q8Qpvt6OFBH5R78GhNGrcD+fA5lpyRl0+0uCzGo0kmIiUsP8PPd72lk/ygfyhLwhjwjnhzwj75oAWUFmfbef4jKUTv7DPceSLDGmSHn93mcF2dC0DOyKxkETI3ed5bEapcuuoByojXGg3+HislcyFBw/ymMoIrwb8ivGL0H+0cfxdXG82Twpdk3nnExfQV41Ht3aZvuBZ18Xh5swMlHRkDfkMczHi+cZeS8LkBkOzoAM1Q0NsobMIfuK7EyvbsiGpmWI8RqxWkHspEMZ4OrwZUP0idMzEf2pLGCDZL+87jyWojidgfzzVoAIgWJSY6Mn9W7XDhOctQK9u7azTo2PngTekQexRRPzh7PCkWfkvSxAZuPyz3EZQpai+wgZQ9aQuRj/saZBNjQtAxsRPz1+hQ9FSw0NigFqs7GAH1V74nrZy65279zBurTJ5fmEEoqFAsIEp5PCfFNccGBbZf/+NXa0UR3gFTyDd+kCBOQNebQzNeZ5Rt7LAmSG89cgQ1GeUkODzCF7bW4G1RZkQ9MyzlFtip2/WAirydBwogrOhcaRtWUB8e4RiltcmCrW/iAoqbuN5c8dMzPivv7665qxabACwILj9lmt4sG7+kofsVVDnpH3sgCZQXY4VVSToUHmkD3KoKZBNjQt43GGBiV5nKFhcXNkoB8PyS0WCEh0HYM8XL97f9688Jo4SV0WwOuShQvDwLvUdRTLFXlFnpH3sgCZzSPZobKSDU07+E8b2tzHGBpWEQR5uvH495oMLdzf5+utW7dis2C1FkplAF7Xr13rRob2uZgfkZBH5BV5Rt7LwhlyCRceUkUSgyxF2eITAyK9yXX8hFxH3FfTIBualqENQ8MqApzogi0WmgwtxNvjsyP796NQahX27tpl4+fqtELMj0jII/KKPJe32gd9L8Tqxwkzmgwtb6vqnILy+r/PCrKhaRlVaWgiQVmhtIKsag1QOaCS0OQ6VsbQ8B27rXEdLV55I7rPCrKhaRlV6TqKBPcLbhjdWqtcR7i7cHs1GVplXEfR0HpQi7bs6GWtx+bXBmRD0zIqYmjaGAzBwEJtGwzBAI48GKLZ0BS6Td43rl/fiUQlG1pF8DhD09bwPobKn0VckKcFpiIwJVHVw/tf1FJDo/wvFAytejd+1lZDkyesNUOesNZsaIIsHnrYWn3SOikpaObMmdXqpdRaQ6u2JVjx0ZOwrEmQV40Hloth2Zi8BKukoWHtKgL2xAYH/DTxrdEtDh48+IYgsmpBrTW06llU7MAXFWOhriCvGg8sgFYtKnaUFxVLDA3dA+w8T4mJXD935vQORUUF1RoJ6/9ee+EFeyqEBbXN0MRtMtiyga0bqGmlhqaNbTLYaoItJ9h6IsirRoOy9BK29GBrD7b4iPlAnrS1TQZbkrA1qbZtkxENLS0ueuO82TM7nTiR31gQW9UjNDT0RUdzc1cbI/0ltc3QUMTixk9sRpQaGlwd1MaV3fiJzZMkg0Jsply4cGH1FcxTAptTsUkVm1XFshRJWxs/YWi1ceOnaGipsVEb3ps1o2O1Glp+/trXRg0Z0IzciTU84KRQ+9UGQwOwnR7b6qEQ2GYvNTQohFZCGejp3EJ4gLwuuUEkshodygDhFhB2AeEXOO+SvGgjlAEMDXJG+AiEkaiJqJGGdurU3iaL5s3tkh4fuxlMiIUjGpoYnKe8OZdnCQSIQaAYsZMuNTQohNaC87g5HUDgm5oenAcBhBBIqCqC8+CzBf1GICQEREJgpJqI9b//znJbZpQKziMaGlzHBXNmda52Q8NL0+NjNmkyNLFFK28VwbMEQp5h9AsuIpRBHHlUfVd9Yii60uHmrCzuIpRbjQ835+31I0LjgWdpHpAn5E0b4ebgUiLEX20LN/dMW7Tt27c3mDB6dKuYoIBf4TqKtSAKhw916zVlcaHBPBosgqEWFxeza8XX+MEEiAy7fctm9te2rWzH9m2lCNcxKfr3rp3s5IkCVXWpZWDQC8E8EdQTAVTVa2A5gKqq0tRGAFV4DDyA6t9nedDaqh5wPH3qJD+1dBvpmCb9AkHHQIcO7Gfnz51jZ06dYssWv8/iQoJ43qHDjyockgN0HLo+dvSI1tB9QXxVj7Vr19Z9a9Cg8CB3ly95wQhMccboO3x6N3I3cPTPR0sXs89WrGBffPIJW7JwPhs3eiQb0rcXGzagHxs+sH8pwvWh/Xrz/s/cmdPZrz/9yAqOHSNDLRZEWXnIIcH/WyHBEfn66KFDbO0vP3F3fsSgAWww6Zgm/QIN7d+X6xmmKxCzH4daYmALc4U43EOUAyfhO3R91KD+kdB9QYRVD6VS+X9ff77cjjr7C6WDISKhNrSi5tbL3pYfWIFDLaIC/fhcDI4D8rS34TVlWST+H+jhypIiw7nhwU27eLHsUyifFPIhF9V9yEVxlQRPvXDhPPtm9ZdscJ9e/FzzQDfnEjpUHuFgC+hkiLcHP4rXygCHaJbUZeg25ANd/3LFCnvoviDG6gH5929EBwcOc7NWXBaPbSrZsjXhh13wI3KEY3R067/Cj3IybPAaH83C8UClCNfpfxw8iGdBOGwuu3kq+/iDpezsmdOCiCsP+dim6jm2CTL+i2StTdy8cYPt2b2LzZs9i2WlpzJnhTnXLyx+xhFMXMdEnVInQf+4jtEzevXrMhxkWKolI4Juu1opLkPXcTC/IMbqRUZCQlyEr9cPTuYmt3k/TcooEa6hM4naEYQCRWv3JITnYLA4ZC41Npp9uGQRGdsZflhGZfGsDiLEYYD/9YMIW5EsIdNcku2Uf3AQoXYPLfl75w42duQIFurtySsF8A16Gh0DlZADygzXiJwtTG9HB/r9AF0XxFj9GNa7t15CWFieg6nxXktiSt3QtEVYmYCWEILEeVafrVjOLhZeEET+9Hh2R+tG/ueP1sWQPmTab/sp9nnBFVaoxfmz4qIiNn/WLBbs4c4Pi0crBd1QN5anJaTDiXSaWrO97bJb5kHXBVE+G2Q0a2blYWM1llq1QxgataUCFJmE4cG/RT+O9+WETIh9GV4DCQpZ4h56FrWMmHGR4EbiervWLanj+7Mg9qfHMzss3s66GP0jHOCOg9zp8f/cYfFY2wiZTvrnPMu/cktr82fFV6+yH9d8y7LSUvjyMHg7Cn3NBoaV99Ap1WoXUe9KHhYv6p2ol9BHexNDqjDN6dNor5PCfNTkyWMtBXE+O6xcufJ/2RnJDiFe7mPcba0P2JsZXyPG76LGxICIeuYxJ4HzqOk+TrbGhg9wv0Kv6R2FflPqmKuexX24HwIQn4WAUIOhxp005k1+1lVlXchr1Jn/iGpluI/qyoLvqJXxfc6BQnbuJlq1soHD8JYsmMeSIsM431wJJPzju/jb3szkTpCHS37LZonvDOrfOxITx/Pnz9da+HCkhTSRNt6Bd+Gd6nyIv0Vewfvi+e/xvJQFyACyeJdkAtlARqXkRrKETD86epkVlzOY9KT4Z8/frE+3LlwH4OlAJ8R8cBLyRXr0wNJA9w7p1W0LPR2uV6R3DzEhjQYBOijqGAjfbag/Rp933WwsrwV6uh0IdHMZqt+woRm9tmas7CFG/i+jWYxVYmRYtr+b8zRfJ/vf/Jwdj1JtcMZCV6fAXLcJJzKgAi9724KYIP+C9PiYk+kJsadiggP+cbexWkuC+NbaQP8rF2uLtdQ/OEs1L3e11I865a4CdWTbtMxgm/78g924XnZHvSKAnW64cIMpd59jOTiUUE1poEQp646yQX+hVbvGisjdLA8nC6hPMmEsH7EzaoC+ZWmXBi0KPjGs7uvocDLM1/vH5NjIkV07tg1btWpVQ0GsTw2kgbSQJtLGO/Au6btFAm/gEbyCZ/B+ouCYkBvNgAwgi8E7znDZiJWRaGSQIWQJmUK2lasKS+LnH75nUQG+DGdQq/et8J17Qno69yi/e5wtTddQq/aVaaOGq6gRWJcYGXq4eWL86dS46ILYkKACD9JF6KWZTuMC0sEzEf6+R6OD/H9LjAid1jojLTslNtRcEGnNAsmhTm5uK/tkMriEsJARXg524xS6OkrqrHKyMzVWRvj5KDtkZSoH9+391vD+fd/q0i67f6ivV461gUGag4lhcpCXa05McOD4cF/vda42iqu2xvolFIMrBdW+EX7ebNbUKapJ7UoCGxGx67rrlpMsmRSnRO1MHXqxdp6Uf579ffnWYxUHE6ajhgxi/q7OnFeMaKm7alAKkK0RRrUsmJ+r45FgT48Pgzzd+2PVf/d2OQE9OnWy6d+li87ZXbvqU7Kl3Etcw3+4B/fiGTyLNJAW0kTaeIf4PikP4Am8gUfwCp7Be3lA3iEDyALLrSAbyEhqaJAhZAmZamuTJzyXC+fPs7kzpsP1Zk3qvlgiP1RR8wUCjuYmhfT/Kh8Hu36B7o7plrq6yXr1Xk4M9/fJ7dO187DhA/uPHdy7p7JTTo4yjHQRemncuKEy2MNjXNtWGSN6de2UPX3SGHt6ZU1en6pq3XJycupnJSY28nNwaGzaoEEjkZxNTRslJgY1Gjq0e6O5cyc2mjZtWuMhQ4Y0iI6Orm9sbPxqqJlZXXzPiIlp3D4zIy3C3+dPNxvFQ6w0EYWKGgsuA2rozrnZbOvmTbwgKgN0vXZfuclG7DrLJ1wx+ljC2IjSSHk6bjzBlpObefZW2cP9wN27d/kGyZGDBzIfJ3uqYVUDOppqYHxyt8VI/6GlQdPrVBldCPP13J+RFL8mPT52EnY9d85qFY8YJOvWrXNfv369JQjfcQ3/4R7ci2fwLNJAWkhTkwuO76IcwRt4BK/gGbyXB+QdMoAs0n5Xq5SIIDvIELKETLU1QX3v3j2+eAFlji4HvBoxT/i0MdRnzgqzh2Henl8P6NszIjQ0tGGGn9+rZqRTpJZ1c0ivpiuVDaFzcydOJB0c2igxKOiRbsb4+TXu3r17oylTpqBSq965smeJb1eu1G+RnDTBy9H2OFdQuAQSJTFq8BqfaPzsk4/Z3TK2bjwJsOt38WFVBKcMtGISdwgE5UHt3Wf7KfbNqSLq3D9eg3bv2sFdMfR7wLs4cioqPM8PddKRJ9UAkDAySTW2r4vDbex2RmgBxPEI8nBdE+Tp9gUZxXIQvuMa/sM9uJc/I7rclBbS5GmrDRaAB/CC7+ANPILXxwF5Rt4hA8hCugoEBJll/H6cyxCy1OZOalQAs9+ZRpWCAy9/qYdAfXtsTbrvZqU4GuPvP4Rur77VG7UdmPPp1b1zDHVKv3cwM+IjRxAoFywpD5/Ipppt7KgR/DT+Bw8q1+G+SUqEjYtYgQ6lwYiZVIlQW2OBbCpdH7HzDNtSeINdr8DCveNHj/DBhWxMqlIHHiNlmDDV1HcTiRsH/pP+X4Hfj54Tr0kI1/FOvBs8gBfwBN7A4+OAvCLPyDtkIC4WlsqIy4wqKcgQsoRMtYEHD+6z0ydPsv553Yn3Bnyer0TeyPCsDXWv+7s4rkyJiooUVEhGRUDyrbN27VqdpPCQ2X7ODljGxGsyUbnQosEvb5mSxL789BO+UqAygErcJsX4/vRV1mvrqUcT2FJlaikoEzr64/ecZ5tJ8R63Wxh9C4zgff/N16x31y7Mz9mR18Yi8dZazTi4wahfx/dyfmt8RrgutgAigQfwAp7A2+NGbpHHLRdv8Dwj75ABZCHKRXQZITPIDjKELLVjZoxduXKZrflqNctIjOerPjAgJs0jyM7E6FxyTNTQ7774osafsFoj0TIlIS/cz/MY9cnuSQ1NVFIsBB0zYhgrvFD5CWwAwT3h9rSjPkjS2qNceUSF4kpFv+EyQeHm7C/kO4YrAiyK3rxhA3t3+nTWISsTq/qZ/uuv8hXyqKF53tSUp7KENJE23oF34Z14N3gALxVdqI08YigfeUbepYMfIMgIsoLMFpHstB0gdf++vWzkwAHcbYSRie63WKl42FhSN8J9X7vWLZvR7bXihNUah/atWwRFBvotszM1uiJObotChsAxLN0xqzWfX6ms+wg8oHoYE6yIKYI+B+bWpEuzQLgO5crbepItPaIKcY3J74rg8uXL7Dfq1CuHDuEr47G4FfM6GJjACge01HDtsOGyrBZPStIWC8/wSVxKA2khTaSNd+BdeCfeDR4qAuQJeUMesZ8MeVbvu0I2kBGui0fnQobaxC8/fs+aRUVQHlX5FCsl/kn5J5fxRnp8zGed2mQ6Cmoj40mBUaLowMCutsaGh0u4TkQwNL3X6rKkiDC2auWn5a7LexJgEhvxL7DqQXQXpcql6q+p+my9tqkObthfdPuxbqQIzP0dP3aU/bn2NzZj8tssM6WZaqc25QeGghUa+M6VSlCsconu4YZGz+BZbqj0HWkibbwD78I7KzrviLwgT8gb8thSqFw09csgI8iqvDgrT4tr14rZIupHetjZMN36dUtUOqrvOhju35oWG921X79+1bcp87+I1NhY/wA3l9/hJqJfJgobymXc6HU+rzKgZ95j54CeBBgx+/JEEVcyGBTv/JOiSY0NNTmUDzHl4VphgS36Jk8C7LX7dtWX5M69w0YNHsiDlCLiFELZuVoreH4RIKfJK/9jDV+sww+bAOE7ruE/3IN78QyeRRpIC2kibbzjSYA8IC/IE/KGPJZaNUPXVC27qrKBrCAzbbZl9+7eZbuoTAf16clsTQz5KnvRyEDIt42RAXO3tVnaKTPTUalUviiojIynQe8uXUyz01Lmhnh5XIZwRRdSdJvgt2OoH+HQtLGqXwRW96PP0W3zSb52DwonKppobLgG9ylnAwZIzvEBEsQtfBIuwPP9+/f5wAQiTSEfUyeOZ/3yuvEVMKnk9kX4+bAQL3d+ogsI33EN/+Ee3Itn8CzSQFpI80nkgTvBO0YXkRfkSRzkUG/JcA1rQ3FCDGQEWWkbWNe4eP48FhcWzI0KLbVoZCh7LKnCVp/Y4MBRlM9aE369xmL96tWv9+vetU2oj9d6EjIOHHgkcBCG+tEXwaqByo4+SoE+Sn7RLTbln/Msi5QL82vq/TVes1Ntj0GC3A3H2fCdZ9lXJ7Ei4ukGBDBfdIlcYLRCmEDG1vstGzfwXc6Ia4Fjk0D4jmv4D/fgXjyDZx836VwWwDN4x2Qz8iLOHaoPfkAGkAW+QzaQUUX7qE8CrAQZPqAfX/GBHd+oVHmZo4KlytbZ0vxWXGjQlq5tslsLqiKjMiCZvzhy0CDrUA/3mY4WJvcgeKmvjs17mKSd+OZodk5Le9VEwI3aVHidTco/x/dWQfnUjQ2EGh/9FezLwoQuto9gqVKRlvssVQHwCF7BM3hHS4W8qLdiIORdVakUsIkkk00Xrj+xu1xRnDl9mnVt14bpvvrKo50FoqGhsnWxsjjTpmXzyTOmjMfhEzK0hSh/3z6B7q53sH4PtZtobBi6hqFhrd6hAwe0MvooBbaEwJ3CqBoUDKsfNLlTqPnRZ0F/BqfSTMq/wBffnrt1l92ughq/sgBP4A08glfwrOp3lm7FRDcZeYcMIAvIpLytQ5UFDK1TThZr/PL/Ss+dUdk7WZj8k9epTUu6VV4Jok2kxsd0jgkOvI3hagyESA0NrRwCr+zfu1frhgbwlREXb7AJe86z1qR0qPFF90mdUOOjVWiz4QRf4Y5BhV/OFpNS15zgoeAFPIE38AhewTN415Qn5BV5Rt4hA8iiIitjKgMYWsfs1mRo/1eWoe3q36NTrKAeMrQBxGto3iz+zWAvt7uuluYlWjQM8SMM91vDh/J+ijZdRylQe2+6cIP3SzAIICofhr6hgFLFRAuAUTnEzMBvHP7w8bErbCspKAYOrj4DlxLvxLvBA3gBT+ANPIJX9RYaeULexEoFeUbeIYOqbMlEwNCwiLjJKy+VMjTuOlqaH+7aLqdnQUH1Hjzxn8XmzZvfGDNyaHJscMDX9qZGD6Tnd4HQR0OL9s6kCeXuCtYG0B/BpCxG2nrz+SXV0Dc+1RVVNWigcsVarz/OA9jg6CKcIYbIUQjTdoNahXtUMVSF3iJNpI134F14J94NHsALeAJv4FG934m8SPOGpVXIM/JeVX0ydZw7e5b17tqZGTdUTeA/6pfTJwZDqI92pXlC7GcDe3WPqfboVP81zJ4woUluRnqryADvVdQ3O0st2cNHo09EED6iGSFc2NKFC/h2iqoGavOj1DIg2jFaBSiqpuVaUqWFwibTPRgswYmYCM82fd8FHngUUX63X7rJCsgYMFleWSANpIU0kTbegXfhnXg3eAAv4Em9chAJeUGekDfkEfNkyHN1tGQiMEUxZuRwxO3gHgy6C6KhodztTAzveznYnAn2dFsW5OYW1aKaj739zwBbZdq0bNkmyNP1O1tj/Rvqw/oQPpYZQejJ0RHsh2+/FYqoelBI/RzEKxy356wq3BopJ9wsPpigQXlxDYT/cR8I8TZwTNRkcslwSATS20kGcuDqba7YCOeGI2tBp2/e5RspQfguXsc9uBfP4FmkgbSQJtLGO8T3ibyVxZ/IG/KCPCFvSO/CM+hfXr9+na38eDlLi4/lZYw9aNLyBwkGV+htZ/tJSnREsylTlLqC+sioCL7/4gsD5YABvRNCQ9bbmhhe17QyHTUchO/jaMdXQuzZvVsooupDMblle67c5AuR4V5hmwhaAz4qCVJTZpDokkGh8YlrOFgDwVzzKI2+207zVgSnZ8LVw7nQOIR94aFLfN0hCN9xDf/hHtyLZ/As0kBaSBNpS9+Fd0t5AXHDE3jmrTIR8oI8IW/I47MABrUwuDV66BAe21OPugjqOoDfqHCdLEyvxocE/dm9Q4duzyz+Ym3DkN69TTNTmvWKDw3a4mlnfV8UplTA+C0uoG3RLIH9sOZbHqznWeHY9Tvse3LTMFiAjY8YvXucewaStiKp647yo6QSflN9Yg0hQijA3cPQO9LFgAQI33EN/+Ee3Ct9FmlJWzBN7wbhP/AIXsEz0kVLiLwgT88at27dYl9/+QXfoArvRdNOB/xG9DVvqnATIsI29enaueuWtWv1BXWSoQ6S64u5LVqYJkWG9gtwdd5qa2xwV91dFAULgWNQJCY4kL07Yzo7e/aMqmSeIe5Q/2XXZVXrNnzXGdaVlBbLmLC6AkqvadBBqvCc6H/cUxkSW9KyDAz3gBfOExF4BK/gGbzD/UReagqOHD7EB7qig/wfLbx+1F+T6AQqZE97m4eJ4SHbWqeldLIiBRFUS4YUwwb2dkkKC5vg42i7h4zsDsKKq9deMDxxZXt0oB+bP2c2O3P6VJXMnT0NMCKHPtRuMjgEp0EkKEzwSg3tkVFJlF8T4X+pAaF1kpL0v4qkJRLuFw0NvIFH8AqewXt1jSpWFAhVgW1QE5SjWLCnG5W9qqItoReC14MQ3k4Ks7uOFiabnRTmvQcNGmQoqJcMYGjv3p6tUpq9E+DidBzrFsUaSipMXOPbSMiFwELT92bN5Ecn1VRgUnj9hRt8YAKBRDGsDsXGqB9G9OCuPXLvSPk1GUhlCEaFtPEOvAvvxLvBA3gBT+ANPNakyXRNQDiDXTv+YlMnjOdeDCpaGBs+seD4kcGRjuAa1ka6Wlv8lRQdPrJ7DTwyq9qBrQ1z5rzjmNs8bXaYj9d50cikBsZrKy7Y1/nv6KAA9u7M6ezcubNCMdRcwANDANH8opvsC2o1EIcehz5gsAI7kuG2wSjQwqCvJBJ+S1svkcQWTNN/0jRgXPiEscGw8C68E+8GD+AFPIG3GuQllgssRDh65DCbOWUyiw0JJD3BYYllhPIjHXJWmOFEohMtkpN6dOnSpR6pW80OIVeV6NWrq0O7zJaTycgK/g3yWbqzyzc0Nn6DH/+0YO4cdurkSUH8tQNY3Y4h8sPFd/gxtBgyX3zkEhv79zm+5wtHz8I40OKAREOREvpTMCZOav+B8AyWUWGlBwZEYHwYgcS6RLwL78S7wQN4qYoV99WBE8ePsdnvTCFd8OdGhoBD6t4P5toQExTGFh7g/W3L9MQEwdieL5C86uTn5zdum9WiS7iP10FnCzPe3KsLTGVgDbjAyLVk7783l4zshEritRg4KwyjejgFExPfGLKfdaCQByYdS4YxctdZ3vpgHgxuHk5s6SkM24PwHdfwH+7BvXgGRjWR0nhn7wV+TjcmmnG6Kd5VFeeTPSscOrifzZs9k+uEnYkRD59n2qRBCTcSIfcwYOblYHsuPiRw1qAePZ6//hrJ6uUPFy8ITo2L/sDB1Oi2ONsvCgnfRT/cxUrBV3F/u3oVn8T8rwDtCVoVxEvE8bQXbt/jh25gmdN6boBX2crjV7ibh8EK9KfmHbzECd9xDf/hHtyLZ/As0jhPaWHpFdLGO2pn21U2Hj4keZ0/z1atXMnatmrB7IwNucejrkMwNBeFOSJ//dqva1dXevT5ch8RobhHpw7dIvx9t0MYFtSaiQJCrYSRRRiZo7kJ65SbxX5Y8w0rKnp282TVCSxzwk5nhAY4c/MuO3fzHidEl8IKEBC+i9dxD+7FM9W5RKom4PLFi+zbr1axbm1z+QkwcCOlXQ/oFubYnC3Nd2QkJCRW69G4NQFxcXFNQ30933K3tS7gzb1QE6EWgqDw6Wlvw7q1b8vWfP0VtWTXBNHKkFESN2/eZL/8+ANrmZz4KHqYtGWDsVkZ6e30dnbIUvbq9Yaggs8HFAqFrrWx/iQrQ70zojDwCSODC4DaCXuRcBYWVgfIkFEejhw+zOOmUDeE65A4EsmNjOuW7k4HU+PsOB+f58vQ9OrX1zVu/Poks6aN1AytMTN4ox4LcHVik8eOqXWjizKqH+fPnWOfLv+IRzKGdwRDk7qP8JbsTQx3x4aH5n44c+bzZWhOFhZ6DhYmU2xNDM9bSlxHCAgh1LCLemCvHmzDH7+z27flFk2GZiBC9ccfLGUZSfFYxc9HqEsYGZG1oS6OxtrWPisriR55vob406KjdaOD/CZ5OdqexdFC/65pVPXRQF4OdmxYv75s66aNZGzaPWxcRu1HYeEF9uGSRaxFs0SNRsZHHakSx/ysp63NN+kxMXb02PO1QXTSkCEN2rVu2TXEx2MbjuCVLh6GcDDiiFggOIZoaN8+bMuGDeyObGwyBGB9K1oyGBn0BYcpYqSaD6wJesT7aWRsXvY2p6MC/CfgPDRB/Z4fsO3bX1IOGuQR7uf9ro2R/k2xjyYlCEr/tVd5aGsY2+b16+WW7bnHQ1Z0+TJb/sESlp4Qx8+dhpGpu4v4DU/J2cL0TlSg32ed22THTJs27VVB/Z4vzJ8/v16Qu3uOi6XFPjT9Yj9NSmjZsOfM3daSDe7Ti23ZuFFu2Z5jXLpYyL74dAXLbp7GQwyKLZlUZ/gUEVXSCJMeExxwoEvbrB5KpbLhcx1XJDIoyCYmJHCys6XFMXHuQ9q6wRWA742462jZhvTtzY8cul3FQ/7YdoMoTLt27OBRgX/54QdOOKz8j3W/sb35+Txk9fOGSxcv8p3s639fx3776Scuk19//JFHTf571052vgoXeqPM1/78E2uX2bKEkZVyF+nTjYwsOihgX6c2OSNxJrWgbs8v8vPzX54w4S1vbwe7yea6jQ+QsZWKcgUDhACxns3NxpIN7deXh8KuCjcSBysg+tKGP/9gi+a9x4YN6MeX+LRMTmKtiNAnaJ/Vip80uvqLz9j+f/7hQWRu3LhRZWHuniVQ4SBvyOOe3bvYpx99yEYPGcw652ax1mkpXC6Zqcn83LWRgwawZYvfZzv/2sZP9rmvxUBJKGuUOboQaKnQpVAf+FBV1DpYF/sgJijgIPGkXLVihQk9/vyu2peCFPSVIBcXGwvdxsMVek0OWen/W0NJCTUYlti421pTy9aHj0beuaNdY/tr61Y2QTmalCiVRfr7MG8ne+ZoYcpPM4F7i7B2TgpT5u/mzBLCQ/mk+njlKPbVF5/zY5H+S0BEsQP79/G8oWLJbZHOYoMDmJ+LEz+aF1uaRLk4Kcz4ofPYK5aTkcamTZzADVMbQBmjrFHmOL4JHo70wAsQjA7uoqol8z9E5TJCOXSovA9NE6xMmloqdHVGKfSa7oXw4BKou5HY9IlzshBebii5kZvW/8lu3bopFMnT42pRET/1v19ed+Zlb8tD2OHwDBg33gkXRST8Rr9Rp+5L/KhXHBuVlZ7KJo55k63+bCWveU+eKBBSrl2AcZ04fpzkup59/MEH7M3hQ3neoMBNX32ZNaU8G5cjEz1qaSA3XycHavkGsb+2bWX37z99ywZ3EWWMskaZo+zxrtLuog42esLI9nbOzR41b+ZMS0GtZGhAHUvDRiYKfRibziES4sOy3EicaOlObiT6bNyNrESfDaev/LhmDT+0z5JaU6Rf4jBAqi1F1wSE3/weKnCQOMKFZWNhPp7UymWy92bNYDvIhcJC6Jo+Ugr3EOsFz545zTZtWM/PVUM/KNDNhUefQt6QRy4Tyu8jmYhyoU9RJpAZWhzcCxdvWP++bPfOHU/lRqJMVS0ZGRmVNcoc78A7pfoAInfxIbW2h9pntx4lu4sVhKVxUytLA53hlnpND2ga9kdthpYGrQlGI4f06cW2btz41McVoWPfrV1b3sHGec8wHmlhlke4D4Wvqs3r8k9HCxO+QbVtywzeIuAw+5occgHxOD54fyEbPqA/y23ZnEUF+HG3EPLFIBTyhDxqyr8mgkzQ6qFP7UmuHowNBwo+Cbi7KPTJUMbgBWUubclg3CDuLgb6H+yU3Xq4Uqm0EtRIRkVgqqdnQS3baCq0fY8KUU35UXsiHLgH9dlQIBgdfJKtNFisvHXzJr4YFa0Ramv4+VIjw/cStbeEpLxI7wVfiDcJVwvG2yIpgU0dP5bzhz1UNQFw504UFPAwfcphQ1hcSBBvuWAcMBLkoaw8qkiUh0rZRflI78N1DFrgpNaRgwayndu3U2X4+BB26ApsppZ1aD/qk1HZoozBjzofkC1azeggv32dcrKUCxYssBDUR8YToI4h3EjeZ9M5DOHy1k2tMNH6QDFQq2FLzXfffMWuXi0SiqxsYIRwy6YNrE+3LnzaALu71QtTJN5XNNB9SPRA+CzRd5SSqGDgS+zfWZNCYF8dRi2XL13Czp4+LXDxbICTQPf9k8+mT57EEsND+UAG8sRl2UgV5x55KJm3f+XO8y+VCRko/13i/n/LB26kOxnbsP79+BQANm2WBbjZvCUjI0OfDK0p0kBa0nTBH5ZWUZ/scEdyF1csXiy7i5WBQkfH2tpEf4SDmcl+jPiJtacodBQwRqCwXAv9iXatW7IVHy7jc2DlYdOGDbwlw3QB9/3VanB8tzbQ44UZ4OZ8PjLAd12Yt8eqAHfntZ72NucRegE1Ku+fqLWCUgK/UBacO42+C47CXbbofXbm1KlnsusZMxA4Q27iW29Svlx43tHygje0TprygLzxvpGuDt+Ggv6Sj5P92UA3519JLl9G+vts9na0K3IwNebloS4LGBpaNkSURiz9I4cPCtyUxJ3bd3hLhq6ABxkZBqTU3UWR8A5yb/fHhQWNeHvMGGtBXWRUBu7u9mY+Lk6jvR3t96HTa02CV69xoexQaLQezRNiqeVYzFd2qwMdf+xdwllqGLaHEpg3Le2WwICczE3vhHh6HMhMTZ43pE+fNsP79Ilvn9kiJzrYf1agh+tGqnGPOJobF1ElwOMJorWVupjqaaKfgdo5JSaKrVi2lF2u4pNvNAEV0LxZM1mwpzs3MPXWQsqvWKGhQkGL7GaluEKVzP5AN9dfEiNC3umY1Spr3FujYvvlde2aGBG22M3K8gDd/4BXhpI08R2GCs8j0MOFzZk+jQ+8SIGBD6xn5aOLZMjoG2rqF1oZ8M+HCr2m+8jwR+s3bGgmqIkMbQARjLPTU0dgZMnFykJVw6opCFw/1IBo+VokxbMPF5c2tqOHD7EZk9/mB63jXlVNXtooYDT+rs67e3RoN+TdGTNcVq1a0nD79u31sJQnJyPDQjlkSETblhl940IDVoZ4uh8hnu6pntXcKmArkMgfFA5zUls3bRK4qj788O03LJUMHfLDnKQmZRYJckBrQhXSvRBvj2MZifEfZ6WndGyZlOTRIinJdNKkSQ1Onz5db/bs2U0G9O7tFODmNtzGUP+wpZ7m9OCWQq5RQf48uvT58+c4TwiQuo1kwQc+yI3HNilN5SK6pnSduhI6IxQGdU0F9ZChTSx+b4Z157atR1Dndz/6ZCgIqaJAKaDMUGTUfBiE+Ji3HJd4gaLzP/udqVj/xp9Fba7eMqJ1w3+uVoojKdGR47777rsy52P++mu9YefcrKikiNBuId5e7/i5Ov3g42hbgBrZiVoA8CNNX/zd8MU6PEzDrKlT+JxVdQD9MrirE99U8glmuGXSfIO4G6zbmIdpI5f6ga+zwwF/V6fVoT5e05Jjo3sM69cvvKCo7EP/urRubRfq4THN3UpxCu+AYUiNxYK+o/8HuVMLyKNMr1+3jv303Ro+hO9FMoGLCYMs4S7Sc2I61JLtV+jrjESXQnitjKrAqlUrTDpktVRGBwYcdFaYP+AFqGYs+I2WA4WNlg3LhjC8jMjGCLyJe9RXFqAgQXYmBhjpOhMfHjK9d+fO3sJrH4s5c+bo9+3aNSU9PnpKkIfbb562Nsepz3gdI3nq74EiOZgZ81YNoRqqA9evXePvateqBecBrZmULyg2Tk0l17vYxdriUKi3x5pWKYlvDurdO3LTpk16lMRjBxronpfeGjDAt1l42EIfR/srjpRHTQMkqAztqK+HKZDuHdrx1TWY9Ifrr16WuB9pgD8rfb1DZGRKhUEjuSWrDpDbZoo5k5jgwIM4pK4sNxJkT4WNwxHSqd8W6u3J+xvipKv0fvTxMLIW7OFWSMr40bC+fQOpNXtFeGWFsH79+te7t89SRAV4eyVHhncI9/P6ljr13NikCoR3431Bnm7sg/cXVMsaSWz3n/3ONL6sDK0W+qYiP5AdjxSlML8R6uP5eWZqak5SRIRH7y5dTIm3J9paguV0U5TKiNZpKUt9nRyuoLIT3yG+D7KADGA8KD8s54InAXdRvEcktLJIg/rmpxwtzN6UjayasXDaNCuszI4JDNgLNxKFou5GonDhpmAeBhPRcEtgfPweiWuCgketSf2swtSY6GWzp06NJt2sVFiyhw/P1h/ct0fbuNCgP3AqjtTQwBdqb0wKz5o2pVoM7SS5zZg8x9FGXNFFOYCIH1Lmy34ujt/lZrVqAWMRsvFUoNfVG//WqMhIf78PHc1NzuB94sCKVAYoL7TuMDBeBmplgk+44OTCno8NDXw3LsjHQXiFjOoEltpgDgUrtTEaiU44ClBae4oFCgPDp/p/IBgZPX8pws/345yMNBiZVvYtXb582axlctIYGyODYnVFw5pA8DRl/LhqMTT0T0cNGcQX5aobGvJvZ2qYH+Tp3qtNmzZGAvuVAjZZNosOj/Cyt1tuZ2x4CyPF4iS3+F5812SEIsG99nN1vpaWELt02rRJfpQN+ejcZwWs0O6ckzUMK7axSgAumVgbPo54IVNhu1qa3wnx8vg+NTo6Pi8v7zUh6UqDFOP/gj1cs630dS9C0aTv1iVDQ00+edzYZ2poGDQCb1aGultcbcxSQ0NDtRZgFLHus9JTWpGLv87JwuwO3MPHlY1Y+aEl83d1uto8KX7J2BEjgirbysrQAhbNnavAEhzqXO+DscEFQeslGpJ6QXJFo/8x90Wd8IfRgf7rWiQk5FTFIQhk+M3pnRcw0CDl41m0aKOHDmae9rYaDc1Cr8lGw4avNiOWtbrd/6fVqw3zOnfuEOHv+7O7jeI6JrX5+0j+4OGRp0E8qcqrCfWjDRi5sQXUr/5AOWJIiJCUjGcN0qM6K0Q3MjjggJOF6R0oEQYh+KiXaGz0CSMURwLdbCxvJoSHbunRsV2nmVUQ7w98BXm5t6d3XhQmWh9RTTM0hb7OZmtj3TQXPb36AvtaAb26zvLlyxsN7N0jKzk64htqUS9Tf/AWlcF9jPBioAPznjZG+g/p2j1bE8MbLpYWe+MjQqbMmTLBV27JaiAmKIdaUcvWA8FY/F2dTyM2JFotjLLxuRiqOeH3Y0Ag0MPlUGSg34Kc9PTmH86bZyAkoVWQkum0z249lBSpqCb00TQZGjc2Intz452xwb7tlMr+OgL7WsX27Wt1enZqFxEdGjAoxMt9aUSAz9akyPCTKbFRhfFhQSdDvD32UHn8QsY4NzLQp01m8+aOxPaLwuMyahqOHTvWsFfnDjFpsdETQ308v/Z1dtjgYmXxl4O58Q43a8vtfq5Of4YHeH/WMjlhZI8uHbyEx6oEpCiKQb17TrA3NSpWTR/UTENDJYClVd3a5g5atWqFucB+lWDzwc1vdO/cOaBLh7bd+uXljRvUt+c0MsBxWRkpA/r16Ja1atVKN2L3+Q2iU5uwZMmSujk5abrtWre2nj19SljfvLyMjMS4zJGDB6RPnTQ2oFVKinmXLq111q5dW6U1JhmQxYAe3ceXZWiYeqjOwRBNhsb7rMRbgJvzseEDB4zftG5dlQeyWbly5ctYyjZFqdSdMWO8nnLAAN1+HTs2XjlnzmvEqjyyWFtBilz/YWHh6/RZrXH9rly5Yt6mZcY46oeUGt7HlnysXpk05q1qMzRNo46ioQV7uBW8NWLY5J1btjgK7MuQUTtALat5qJ/POCtDveJHAzKCcmMJlGrCemq1GZpy6BAeD0WTofm5OB0f2LvnpF+++06eFJZRuxDq62puZ2w0TqHftFicR4Nio2+G71jrt2LZB4IpVC1Onzwp7EFzJh6a8GVoKsNXzVu52Vgdz0xNnjReqZQNTUbtgt4rL5ibNmlUytAwUY1h7bT4GB7KrTpw8cIFHqcyMTKUG9e/6wpVLa2tidFxH2fHSXFBQbKhyahdMGvwirl50yalDA2DIFjcnBQVXm2GhiCoKz9ezponxnE++N4wbmiYS9NlCl2d4xa6Om+bNm4sG5qM2gVbvQYaDU10HbGr4LMVHwumULUounKFzZs9i7+TG7tkpbxoaGY6jWVDk1H7EBceYGlvajzRQrdxsRUpt2hoGIwAYfMnou9i4+PaX35m6379pUrot59/4qevIFYjon2hj/bvdAPxRTzZGhse94PrGBEhG5qM2oX+3bubBLg6j7E11r+hvtYRhoZPX2dHlhobzaMB44SUqqBWKc34hldnhRk3MBj7v7yodi+4WFsczEhKGKRUDqnSCWsZMrQOpVJZLyUmqq+Po911KDkUXFRy3rKR0sPg4LphxzE2qWLIX2uE9IgQHx/vM9MpueEV1/Bu7IT2drLf2ik3K2n+1/Ofr6NnZfw30Dk7MzkywHePq7XinrhK/d/WBMrehCs/+m1VSaVbMqFVpWtUCVwNdHNZ0rlNGzlevYzaiV7t2ztQqzbNy8H2OB8QUVN2KD9v3Ujpq5LUjQx8oDWzNTa472FvvS7E061NixYttLYXT4aMasWAnJz6A/LyQppFhX/p5+L4ELsJeMumrvjVSNjNgBbO1cqChfp4nk5PjB0W4eeHndVypF8ZtRdYa9mzS8ecpMiINS6WFqexHw7BcDAIwVscUnoYH++zaSDxP7iZeAYt45MSnoNxWxvqMnvqszmYGRcFe3nszmnRfNbUiWM8BVZlyKjdmKlUvtGlbdvIAHeX6e62VgdcFOYPsNkRLQwMryIEV4/uxzMghNoTvz+WyMgQJ/+hvanRA3cbqzMR/j5ftGuZ0Wnu3Lm2OHVVYFOGjNoPxthLCaGhbnEhQV0Sw0Nnhvl4rowK9Ps1NTZqQ1pc9EZ8aqL0+Bj+X7if93fOCrOPyHAWKXSbvI/PxxHdt8i8ScNFjhami6MD/RbHBQVODnR16toqJSXyu08/bSqwJkPGfw9kcC/+888/ZsoRQ8LGjh7Reu7MdzotmDOr83uzZnTURO/PmcP/GzVkSEpcaKCftVFTVwvdhs42uroujyO6z0X3pRdckiMj3X9ctcqN3FhdgQ0ZMp4PkMHV3b59e4MTJ/IbnzhxggifpWnv3r1N8Eku3mtKpfLlFi+8gM2R2IWMzwoRvYsTfZchQ4YMGTJkyJAhQ4YMGTJkyJAhQ4YMGTJkyJAhQ4YMGTJkyJAhQ4YMGTJkyJAhQ4YMGdWLF174f28tqpKus3G5AAAAAElFTkSuQmCC;" parent="17" vertex="1">
                    <mxGeometry width="40" height="40" as="geometry"/>
                </mxCell>
                <mxCell id="16" value="API" style="text;strokeColor=none;fillColor=#ffffff;align=center;verticalAlign=middle;rounded=0;fontColor=#2E303E;fontSize=10;labelBackgroundColor=none;spacing=0;flipH=0;flipV=1;fontFamily=Lucida Console;fontStyle=1;fillStyle=solid;" parent="17" vertex="1">
                    <mxGeometry x="10" y="10" width="20" height="20" as="geometry"/>
                </mxCell>
                <mxCell id="18" value="&lt;h5 style=&quot;font-size: 14px; line-height: 19px;&quot;&gt;&lt;font face=&quot;Noto Sans JP&quot;&gt;API レスポンス&lt;/font&gt;&lt;/h5&gt;" style="text;html=1;strokeColor=none;fillColor=none;align=center;verticalAlign=middle;whiteSpace=wrap;rounded=0;fontColor=#FFFFFF;" parent="1" vertex="1">
                    <mxGeometry x="210" y="320" width="220" height="30" as="geometry"/>
                </mxCell>
                <mxCell id="19" value="&lt;h5 style=&quot;font-size: 14px; line-height: 19px;&quot;&gt;&lt;font face=&quot;Noto Sans JP&quot;&gt;クライアント&lt;/font&gt;&lt;/h5&gt;" style="text;html=1;strokeColor=none;fillColor=none;align=center;verticalAlign=middle;whiteSpace=wrap;rounded=0;fontColor=#FFFFFF;" parent="1" vertex="1">
                    <mxGeometry x="75" y="240" width="90" height="30" as="geometry"/>
                </mxCell>
                <mxCell id="20" value="&lt;h5 style=&quot;font-size: 14px; line-height: 19px;&quot;&gt;&lt;font face=&quot;Noto Sans JP&quot;&gt;サーバー&lt;/font&gt;&lt;/h5&gt;" style="text;html=1;strokeColor=none;fillColor=none;align=center;verticalAlign=middle;whiteSpace=wrap;rounded=0;fontColor=#FFFFFF;" parent="1" vertex="1">
                    <mxGeometry x="474.5" y="240" width="90" height="30" as="geometry"/>
                </mxCell>
            </root>
        </mxGraphModel>
    </diagram>
</mxfile>